<?xml version="1.0" encoding="UTF-8"?>
<svg version="1.1" xmlns="http://www.w3.org/2000/svg" width="1024" height="849">
<path d="M0 0 C1.39486949 -0.00387127 2.78973502 -0.00949542 4.18459123 -0.0167096 C8.02502185 -0.0314734 11.86504536 -0.02129009 15.70546324 -0.0070976 C19.88066686 0.00393805 24.05581308 -0.00820026 28.23101223 -0.01740509 C35.55098987 -0.03032508 42.87084655 -0.02833406 50.19082451 -0.0166254 C61.07563036 0.00073778 71.96034083 -0.00473488 82.84515158 -0.01479231 C102.28306231 -0.03199936 121.72091671 -0.02643403 141.15882629 -0.01143513 C158.16778701 0.00160534 175.17672816 0.0068148 192.18569374 0.00424671 C193.31297322 0.0040863 194.4402527 0.00392588 195.60169216 0.0037606 C200.17741186 0.00309704 204.75313156 0.00239464 209.32885125 0.00163526 C252.26962431 -0.00539193 295.21036291 0.01011347 338.15112719 0.03625872 C376.32379428 0.05937765 414.49642349 0.06476113 452.66909599 0.05452633 C462.44434991 0.05192444 472.21960382 0.04933946 481.99485779 0.04692841 C483.79988209 0.04648223 483.79988209 0.04648223 485.64137153 0.04602705 C517.51475467 0.03841725 549.38813469 0.04481969 581.26151645 0.05562443 C584.68987313 0.05677226 588.11822981 0.05791544 591.54658649 0.05905125 C593.820979 0.0598065 596.0953715 0.06057214 598.369764 0.06134826 C615.3718184 0.06701334 632.373863 0.0656721 649.37591743 0.06112003 C668.70108947 0.05601959 688.02622478 0.06183251 707.35138763 0.08201433 C718.1749318 0.093026 728.99840381 0.09577047 739.82195022 0.0867258 C747.0427639 0.08152436 754.26351558 0.08715697 761.48431622 0.10177914 C765.6043265 0.10981938 769.72419045 0.11304429 773.84420015 0.10320658 C777.58843958 0.09436744 781.33239676 0.09920208 785.07661023 0.11518602 C787.06553575 0.12009094 789.05448073 0.11021896 791.04338521 0.09983739 C792.80775195 0.11148756 792.80775195 0.11148756 794.60776246 0.12337309 C795.6211622 0.12380011 796.63456194 0.12422713 797.67867077 0.12466708 C802.19451589 0.73939581 805.37546526 2.99142612 808.19009209 6.50057125 C811.70109577 11.18190949 811.58253846 15.04088478 811.56593323 20.66443348 C811.56738667 21.51058387 811.56884011 22.35673427 811.57033759 23.22852558 C811.5740126 26.08890901 811.57050422 28.94923965 811.56707573 31.80962276 C811.56822696 33.87104893 811.56981449 35.93247489 811.57180297 37.99390042 C811.57599612 43.67826173 811.57390565 49.36260636 811.57081676 55.04696774 C811.5685628 61.1697684 811.57204227 67.2925661 811.57479668 73.41536617 C811.57899567 84.72376239 811.5786186 96.03215177 811.57588521 107.34054783 C811.57337235 117.78753705 811.57271169 128.23452432 811.57390785 138.68151379 C811.57402243 139.71987611 811.57402243 139.71987611 811.57413932 140.77921544 C811.57445065 143.58907896 811.57476905 146.39894247 811.57509909 149.20880598 C811.5781602 175.58441815 811.57538139 201.96002692 811.57000219 228.33563856 C811.5652574 251.77880155 811.56568009 275.2219591 811.57046318 298.66512203 C811.57581596 324.98863627 811.57794208 351.31214749 811.57485092 377.6356622 C811.57453019 380.44110719 811.57421735 383.24655219 811.57390785 386.05199718 C811.57382877 386.74279581 811.5737497 387.43359443 811.57366822 388.14532635 C811.57252988 398.58543683 811.57386267 409.02554514 811.57638741 419.46565533 C811.57924365 431.33593896 811.57844184 443.20621618 811.57310666 455.07649957 C811.57047292 461.13674096 811.56945908 467.19697132 811.57275581 473.25721264 C811.57572551 478.79999571 811.57411461 484.34275746 811.56877826 489.88553859 C811.56765696 491.89561859 811.56823895 493.90570036 811.57065405 495.91577922 C811.57367601 498.63888768 811.57059472 501.3619222 811.56593323 504.08502674 C811.56827439 504.87320685 811.57061556 505.66138696 811.57302767 506.47345132 C811.55988923 510.2896649 811.25142485 513.77729867 810.44009209 517.50057125 C810.98318427 519.40586082 810.98318427 519.40586082 812.04165459 521.23494625 C815.49815235 528.42090126 817.53243997 536.13208091 819.81509209 543.75057125 C820.30650917 545.37687723 820.79821027 547.00309742 821.29018974 548.62923336 C825.43363748 562.35585505 829.55474941 576.09056774 833.11454582 589.98206234 C836.31560792 602.42764004 840.07406203 614.68767592 843.85879326 626.96565914 C847.0135958 637.21763844 850.01291546 647.44885442 852.53896904 657.87435055 C853.93459427 663.49050378 855.58302842 669.02330798 857.25259209 674.56307125 C857.59516045 675.71210934 857.93772881 676.86114742 858.29067802 678.04500484 C859.95781776 683.6233927 861.64894543 689.19363068 863.37368584 694.7544775 C863.68007988 695.74633053 863.98647392 696.73818356 864.30215263 697.76009274 C864.86457845 699.57510285 865.43185203 701.38862381 866.00576591 703.20003414 C867.66112216 708.53577027 869.01002724 713.90075485 870.24087334 719.3482275 C872.59267405 729.66199767 875.74189519 739.71571596 878.87759209 749.81307125 C882.10272235 760.2028955 885.28758486 770.56046057 887.83071709 781.14119625 C891.2050214 795.13499072 895.62568105 808.83204118 899.87881279 822.57796383 C900.9636668 826.09076802 902.04015193 829.60605541 903.11587334 833.121665 C903.45016853 834.19242779 903.78446373 835.26319057 904.12888908 836.36640072 C904.43308266 837.36256908 904.73727623 838.35873745 905.05068779 839.38509274 C905.31984505 840.25520489 905.5890023 841.12531704 905.86631584 842.02179623 C906.44009209 844.50057125 906.44009209 844.50057125 906.44009209 849.50057125 C568.52009209 849.50057125 230.60009209 849.50057125 -117.55990791 849.50057125 C-117.55990791 844.10016575 -117.4618815 841.3071737 -115.97104073 836.45198727 C-115.62357796 835.30291393 -115.27611519 834.1538406 -114.91812325 832.96994686 C-114.53694344 831.74384197 -114.15576363 830.51773708 -113.76303291 829.2544775 C-113.36809064 827.95788955 -112.97412701 826.66100314 -112.58108711 825.36383724 C-111.54530497 821.95292828 -110.49866748 818.54545728 -109.448946 815.13881588 C-107.58276963 809.07704012 -105.73422166 803.00986516 -103.88803291 796.9419775 C-103.68951288 796.2907328 -103.49099285 795.63948811 -103.28645706 794.96850872 C-100.80949648 786.83170151 -98.52598242 778.714096 -96.55844307 770.43978024 C-94.05886081 760.25185645 -90.74757271 750.24457119 -87.69882393 740.21102047 C-84.30129507 729.01118989 -81.05974537 717.82232279 -78.29564095 706.4483099 C-76.50716509 699.13612733 -74.35442222 691.98405662 -72.05990791 684.81307125 C-71.27010212 682.30158613 -70.48103419 679.78986884 -69.69272041 677.277915 C-69.32179268 676.10083981 -68.95086494 674.92376461 -68.56869698 673.71102047 C-65.53248518 664.04834256 -62.76371898 654.35890171 -60.28256416 644.53841305 C-56.80021537 630.77450969 -52.8279504 617.22556853 -48.55551338 603.68880367 C-45.90420622 595.23660258 -43.58149762 586.76276112 -41.48382759 578.15645504 C-39.36967552 569.56101742 -36.89104065 561.08774882 -34.33041573 552.61604977 C-33.55332359 550.04125495 -32.78672401 547.46348665 -32.02084541 544.88533688 C-29.47822538 536.39672774 -26.80444515 528.11730836 -23.34506416 519.94954586 C-22.26345745 517.40531891 -22.26345745 517.40531891 -23.55990791 514.50057125 C-23.65747689 511.75095276 -23.69742532 509.0267733 -23.69133568 506.27703285 C-23.69338831 505.42442856 -23.69544095 504.57182427 -23.69755578 503.69338349 C-23.70325014 500.8110392 -23.70176554 497.92874234 -23.70034981 495.04639339 C-23.70293204 492.96918044 -23.70594481 490.89196798 -23.70935321 488.81475621 C-23.71744301 483.08672226 -23.71921388 477.35870083 -23.71995068 471.63066185 C-23.72179778 465.4608046 -23.72934334 459.2909539 -23.73608589 453.12110043 C-23.75039281 438.9170749 -23.75619742 424.71305349 -23.76077784 410.50902249 C-23.76311269 403.49235139 -23.76671521 396.4756811 -23.77047321 389.45901064 C-23.78330911 365.44758482 -23.79402862 341.43615947 -23.79747581 317.4247303 C-23.79769745 315.91709259 -23.79791923 314.40945487 -23.79814117 312.90181716 C-23.79836181 311.39050733 -23.79858229 309.8791975 -23.79880261 308.36788768 C-23.79924517 305.33586228 -23.79969229 302.30383688 -23.80014229 299.27181149 C-23.80030637 298.14416023 -23.80030637 298.14416023 -23.80047378 296.99372814 C-23.80410542 272.61079031 -23.82002931 248.2278822 -23.84333265 223.84495575 C-23.86791647 198.0752024 -23.88164797 172.30546604 -23.88284373 146.53570062 C-23.88301519 143.7080506 -23.88323062 140.8804006 -23.88347816 138.05275059 C-23.88356182 137.00835488 -23.88356182 137.00835488 -23.88364716 135.94286028 C-23.88479883 124.72761948 -23.89583058 113.51240912 -23.91036522 102.29717862 C-23.92471589 91.02926465 -23.92772233 79.76138927 -23.91992524 68.49346515 C-23.91600778 62.38648404 -23.91700167 56.27960558 -23.93098259 50.17263699 C-23.9436558 44.58595567 -23.94258217 38.99945483 -23.93039188 33.412774 C-23.92842343 31.38786956 -23.93156582 29.36295261 -23.94023624 27.33806577 C-23.95125207 24.59236682 -23.94389522 21.84731347 -23.93184471 19.10163307 C-23.9394399 18.30966259 -23.9470351 17.51769212 -23.95486045 16.70172253 C-23.90892153 11.87579672 -23.36195188 8.47097357 -20.55990791 4.50057125 C-14.3291954 -0.64132326 -7.79708354 -0.05850614 0 0 Z " fill="#141414" transform="translate(117.55990791320801,-0.5005712509155273)"/>
<path d="M0 0 C1.46507215 -0.00375528 1.46507215 -0.00375528 2.95974171 -0.00758642 C4.04778375 -0.00524525 5.13582579 -0.00290409 6.2568388 -0.00049198 C7.40578715 -0.00194542 8.55473551 -0.00339886 9.73850048 -0.00489634 C12.95617918 -0.00793793 16.17382064 -0.00644432 19.39149795 -0.00311839 C22.88125752 -0.0005975 26.37101228 -0.00383528 29.86077118 -0.00636172 C35.98645013 -0.00998635 42.11212028 -0.00985594 48.23779964 -0.00731456 C57.34661412 -0.00354576 66.45542112 -0.00545867 75.56423554 -0.00852287 C91.82870908 -0.01380017 108.09317871 -0.01332763 124.35765263 -0.01044396 C138.59059406 -0.00793273 152.82353404 -0.00726968 167.05647564 -0.0084666 C168.47022856 -0.00858118 168.47022856 -0.00858118 169.91254214 -0.00869807 C173.73804376 -0.00900939 177.56354537 -0.00932779 181.38904699 -0.00965784 C217.30724971 -0.01271985 253.22544994 -0.00993861 289.14365228 -0.00456094 C321.08540976 0.000185 353.02716326 -0.00023962 384.96892071 -0.00502193 C420.81959596 -0.01037149 456.670269 -0.01250273 492.5209446 -0.00940967 C496.3396527 -0.00908893 500.1583608 -0.00877609 503.9770689 -0.0084666 C505.38756151 -0.00834799 505.38756151 -0.00834799 506.82654891 -0.00822697 C521.05382652 -0.0070874 535.28110254 -0.00842367 549.50837994 -0.01094615 C565.6783357 -0.0137987 581.84828692 -0.01310497 598.01824212 -0.00766541 C607.07847943 -0.00471846 616.13870691 -0.00455274 625.19894398 -0.00831159 C631.23948532 -0.01054219 637.28001874 -0.00917991 643.3205589 -0.00480682 C646.76980831 -0.00241204 650.21903808 -0.00164751 653.66828692 -0.0052128 C657.3711126 -0.00821313 661.07388305 -0.00517612 664.77670574 -0.00049198 C665.86474778 -0.00283314 666.95278982 -0.00517431 668.07380283 -0.00758642 C669.05051759 -0.0050829 670.02723236 -0.00257938 671.03354454 0 C671.88169942 0.00006776 672.72985429 0.00013552 673.60371083 0.00020533 C675.51677227 0.12534916 675.51677227 0.12534916 676.51677227 1.12534916 C676.61669813 3.34389372 676.64417624 5.56569519 676.64540672 7.78648865 C676.64715976 8.49447188 676.6489128 9.2024551 676.65071896 9.93189237 C676.65541764 12.33428245 676.65290361 14.73661304 676.65048504 17.13900578 C676.65235107 18.86673531 676.65465093 20.59446442 676.65735036 22.32219285 C676.66350049 27.09333648 676.66333102 31.86446269 676.66215599 36.63560939 C676.66195279 41.77201347 676.66746297 46.90841183 676.67221355 52.04481328 C676.68053817 62.11657803 676.68326921 72.18833693 676.68382593 82.26010483 C676.68430022 90.44227414 676.68635061 98.62444152 676.68952656 106.80661023 C676.69833796 129.97699613 676.70294516 153.1473774 676.70219608 176.31776499 C676.70213615 178.19345544 676.70213615 178.19345544 676.702075 180.10703862 C676.70201368 181.98500482 676.70201368 181.98500482 676.70195112 183.90090973 C676.70154448 204.2011628 676.71111731 224.50139733 676.72521337 244.80164503 C676.73955492 265.61877611 676.74648479 286.43589814 676.7456196 307.25303429 C676.74528686 318.9511517 676.74806722 330.64924967 676.75879765 342.34736264 C676.76787348 352.30591777 676.77010205 362.26444467 676.76328822 372.22300213 C676.76000822 377.30872081 676.76001925 382.39438522 676.76864147 387.48009884 C676.77644254 392.12907619 676.77514133 396.77795567 676.76635734 401.42693044 C676.76480812 403.11535069 676.76669124 404.80377802 676.77221742 406.49218994 C676.77919655 408.77437071 676.77404855 411.0562004 676.76566124 413.33836854 C676.76598729 415.24565009 676.76598729 415.24565009 676.76631993 417.19146258 C676.51677227 420.12534916 676.51677227 420.12534916 674.51677227 422.12534916 C672.48167035 422.37516416 672.48167035 422.37516416 669.91575807 422.37489682 C668.93822943 422.37964764 667.96070079 422.38439845 666.95355007 422.38929322 C665.86973939 422.38432504 664.78592871 422.37935686 663.66927528 422.37423813 C662.52086146 422.37684542 661.37244764 422.3794527 660.18923339 422.382139 C656.97767514 422.38738074 653.76626892 422.38357108 650.5547196 422.37608291 C647.06989695 422.37013837 643.58509051 422.37573493 640.10026795 422.37990373 C633.98480408 422.38560495 627.86937727 422.38382096 621.75391483 422.37721837 C612.66031541 422.36742733 603.56674327 422.36902622 594.47314072 422.37296866 C579.1780367 422.37925411 563.88294808 422.3760605 548.5878458 422.36737454 C533.43668697 422.358772 518.28553505 422.3538541 503.13437366 422.35404217 C502.19332681 422.35404982 501.25227995 422.35405746 500.28271652 422.35406534 C496.46309316 422.35410625 492.64346981 422.35417185 488.82384646 422.35427115 C452.96492156 422.355178 417.10600721 422.34522066 381.24708596 422.32984149 C349.35887114 422.3162157 317.47066381 422.30998021 285.5824461 422.3106519 C283.5348914 422.31069231 281.48733671 422.31073267 279.43978202 422.31077298 C278.42753028 422.31079333 277.41527855 422.31081368 276.37235252 422.31083465 C271.27726804 422.31093544 266.18218356 422.31102602 261.08709908 422.31110489 C260.08201039 422.31112161 259.07692171 422.31113832 258.04137579 422.31115554 C231.42854884 422.31152037 204.81572282 422.30698574 178.20289665 422.30077833 C177.25673724 422.30055806 176.31057782 422.30033779 175.3357469 422.30011084 C171.53066807 422.29922256 167.72558923 422.29833418 163.92051041 422.29741988 C150.65938103 422.29425514 137.3982524 422.29275001 124.13712267 422.29230839 C107.05206517 422.29171236 89.96701386 422.28773914 72.88195901 422.27787694 C63.83726986 422.27274665 54.79258982 422.27035763 45.74789928 422.27187312 C39.71775594 422.27260412 33.68762151 422.26972968 27.65748102 422.26382931 C24.21418928 422.26055979 20.77091671 422.25891419 17.32762402 422.26158991 C13.63120472 422.26363143 9.93484241 422.25963329 6.23842812 422.25398362 C4.60920035 422.25706659 4.60920035 422.25706659 2.94705889 422.26021186 C1.97203376 422.25745211 0.99700864 422.25469237 -0.0075627 422.251849 C-0.85424599 422.2515575 -1.70092928 422.251266 -2.57326964 422.25096567 C-4.48322773 422.12534916 -4.48322773 422.12534916 -5.48322773 421.12534916 C-5.58225312 418.90064014 -5.60878529 416.6727108 -5.60906887 414.44579899 C-5.61052231 413.7358278 -5.61197575 413.0258566 -5.61347324 412.29437113 C-5.61715932 409.88522641 -5.61363484 407.47614394 -5.61021137 405.06699955 C-5.61136216 403.3344327 -5.6129494 401.6018661 -5.61493862 399.86930001 C-5.61913773 395.08482241 -5.61703864 390.3003646 -5.6139524 385.5158869 C-5.61170087 380.36518826 -5.61517667 375.21449316 -5.61793232 370.06379521 C-5.62239167 359.96429051 -5.62141282 349.86479323 -5.61851968 339.76528823 C-5.61626629 331.56118073 -5.61595284 323.3570753 -5.6170435 315.15296757 C-5.61719673 313.98774006 -5.61734996 312.82251256 -5.61750784 311.62197512 C-5.61782755 309.25524239 -5.61815176 306.88850965 -5.61848043 304.52177691 C-5.6213357 282.30043418 -5.61804745 260.07909557 -5.61268006 237.85775352 C-5.60821198 218.76823906 -5.6089879 199.67873069 -5.61359882 180.58921635 C-5.61894375 158.45034605 -5.62106101 136.31147935 -5.61798656 114.17260849 C-5.61766799 111.81431592 -5.61735362 109.45602334 -5.6170435 107.09773076 C-5.61688922 105.93724014 -5.61673494 104.77674953 -5.61657599 103.58109254 C-5.61571059 95.38166133 -5.61717421 87.18223241 -5.61952305 78.98280156 C-5.62232034 68.99787312 -5.62158429 59.01295256 -5.6162423 49.02802503 C-5.61360433 43.92826875 -5.61260184 38.82852562 -5.61589146 33.72876942 C-5.61885246 29.06814929 -5.61726491 24.40755459 -5.6119139 19.7469368 C-5.61078887 18.05315147 -5.61138278 16.35936403 -5.61378969 14.66558003 C-5.61679234 12.3786551 -5.61375061 10.09181945 -5.60906887 7.80489933 C-5.60890652 6.52996082 -5.60874417 5.2550223 -5.60857689 3.94144928 C-5.4084096 -0.55551847 -4.07044833 0.00032519 0 0 Z " fill="#8DCCFB" transform="translate(175.48322772979736,50.874650835990906)"/>
<path d="M0 0 C1.1593164 -0.00500704 2.3186328 -0.01001407 3.51308 -0.01517284 C4.8003567 -0.01049051 6.08763341 -0.00580817 7.4139185 -0.00098395 C8.79022074 -0.0030682 10.16652189 -0.00602918 11.54282057 -0.00979269 C15.35489409 -0.01763531 19.16686734 -0.01289255 22.97893937 -0.00623678 C27.11476768 -0.00119139 31.25057988 -0.00767201 35.38640594 -0.01272345 C42.64490849 -0.01997005 49.90338132 -0.0197135 57.16188526 -0.01462913 C67.95522239 -0.0070891 78.74853428 -0.0109186 89.54187122 -0.01704574 C108.81458326 -0.02759846 128.08728208 -0.02665601 147.35999539 -0.02088792 C164.22545959 -0.01586481 181.09091892 -0.01453965 197.95638371 -0.0169332 C199.63183537 -0.01716236 199.63183537 -0.01716236 201.34113454 -0.01739614 C205.87480896 -0.01801878 210.40848338 -0.01865557 214.9421578 -0.01931567 C257.50667813 -0.02543925 300.07119001 -0.01987792 342.63570903 -0.00912188 C380.48529107 0.00036995 418.33485965 -0.00047928 456.18444157 -0.01004386 C498.6691 -0.02074373 541.15375097 -0.02500503 583.63841057 -0.01881933 C588.16401831 -0.01817786 592.68962606 -0.01755218 597.2152338 -0.0169332 C598.32962524 -0.01677505 599.44401668 -0.01661689 600.59217756 -0.01645395 C617.4506422 -0.01417511 634.30910145 -0.01684677 651.16756535 -0.02189231 C670.32861069 -0.02759825 689.48964069 -0.02620812 708.65068412 -0.01533082 C719.38595013 -0.00943836 730.12118295 -0.00910342 740.85644813 -0.01662317 C748.01475937 -0.02108609 755.17304384 -0.01835667 762.33135109 -0.00961363 C766.41819381 -0.0048265 770.50497028 -0.00329009 774.59181106 -0.0104256 C778.30247083 -0.01683869 782.01300496 -0.01421108 785.72365539 -0.00406428 C787.70195062 -0.00106838 789.68025309 -0.00797704 791.65853751 -0.01517284 C793.39751211 -0.00766228 793.39751211 -0.00766228 795.17161751 0 C796.67912294 0.00020328 796.67912294 0.00020328 798.21708304 0.00041066 C800.58580875 0.25069833 800.58580875 0.25069833 802.58580875 2.25069833 C802.78306766 4.94676809 802.85347935 7.54012495 802.83749104 10.23742318 C802.84039792 11.07656502 802.8433048 11.91570687 802.84629977 12.78027725 C802.85366195 15.62286487 802.84662767 18.4652408 802.83977604 21.30782723 C802.84207802 23.35403007 802.84525276 25.40023209 802.84923053 27.44643235 C802.85762331 33.09325529 802.85343303 38.74001112 802.84725809 44.38683438 C802.84275283 50.4673353 802.84970774 56.54782426 802.85521793 62.62832284 C802.86361825 73.85958619 802.86286072 85.0908279 802.857395 96.3220908 C802.85237091 106.69634657 802.8510472 117.07059443 802.85344028 127.44485116 C802.85366944 128.47565157 802.85366944 128.47565157 802.85390322 129.52727623 C802.85452587 132.31659699 802.85516266 135.10591775 802.85582275 137.8952385 C802.86194564 164.08018541 802.85638609 190.26511859 802.84562896 216.45006338 C802.83613721 239.73192301 802.83698644 263.01376076 802.84655094 286.2956202 C802.85725197 312.43158897 802.86151147 338.56754559 802.85532641 364.70351624 C802.85468494 367.48785933 802.85405927 370.27220241 802.85344028 373.0565455 C802.85328213 373.74216029 802.85312398 374.42777508 802.85296103 375.13416608 C802.85068267 385.50384437 802.85335297 395.87351392 802.85839939 406.243191 C802.86410664 418.02978098 802.862519 429.81635006 802.8518379 441.60293841 C802.84656379 447.62230705 802.84455388 453.64163118 802.85113621 459.66099954 C802.85706198 465.16297979 802.85387681 470.66487392 802.8431811 476.16684628 C802.84093266 478.1654621 802.84211532 480.16408508 802.84693268 482.16269636 C802.85294646 484.86322797 802.84684592 487.56345808 802.83749104 490.26397347 C802.84217337 491.05390309 802.8468557 491.84383271 802.85167992 492.65769958 C802.8141095 498.02239759 802.8141095 498.02239759 800.58580875 500.25069833 C798.21708304 500.50098599 798.21708304 500.50098599 795.17161751 500.50139666 C794.01230111 500.50640369 792.85298471 500.51141073 791.65853751 500.5165695 C790.3712608 500.51188716 789.0839841 500.50720483 787.75769901 500.50238061 C786.38139677 500.50446486 785.00509561 500.50742584 783.62879694 500.51118934 C779.81672341 500.51903197 776.00475017 500.5142892 772.19267814 500.50763344 C768.05684983 500.50258805 763.92103763 500.50906867 759.78521156 500.5141201 C752.52670902 500.5213667 745.26823619 500.52111016 738.00973225 500.51602578 C727.21639512 500.50848576 716.42308323 500.51231526 705.62974629 500.5184424 C686.35703424 500.52899511 667.08433543 500.52805267 647.81162211 500.52228457 C630.94615792 500.51726147 614.08069859 500.51593631 597.2152338 500.51832986 C595.53978214 500.51855901 595.53978214 500.51855901 593.83048297 500.5187928 C589.29680854 500.51941543 584.76313412 500.52005223 580.22945971 500.52071233 C537.66493938 500.5268359 495.1004275 500.52127457 452.53590848 500.51051853 C414.68632644 500.50102671 376.83675786 500.50187594 338.98717594 500.51144052 C296.50251751 500.52214039 254.01786654 500.52640169 211.53320694 500.52021599 C207.0075992 500.51957451 202.48199145 500.51894884 197.95638371 500.51832986 C196.84199226 500.5181717 195.72760082 500.51801355 194.57943995 500.5178506 C177.72097531 500.51557177 160.86251605 500.51824343 144.00405216 500.52328897 C124.84300682 500.52899491 105.68197681 500.52760477 86.52093339 500.51672748 C75.78566738 500.51083501 65.05043456 500.51050007 54.31516938 500.51801983 C47.15685814 500.52248275 39.99857367 500.51975333 32.84026642 500.51101029 C28.7534237 500.50622316 24.66664723 500.50468675 20.57980645 500.51182225 C16.86914668 500.51823534 13.15861255 500.51560774 9.44796212 500.50546093 C7.46966688 500.50246503 5.49136442 500.5093737 3.51308 500.5165695 C2.3537636 500.51156246 1.1944472 500.50655542 0 500.50139666 C-1.00500362 500.50126114 -2.01000725 500.50112562 -3.04546553 500.50098599 C-5.41419125 500.25069833 -5.41419125 500.25069833 -7.41419125 498.25069833 C-7.61145015 495.55462856 -7.68186185 492.9612717 -7.66587353 490.26397347 C-7.66878041 489.42483163 -7.67168729 488.58568979 -7.67468226 487.7211194 C-7.68204444 484.87853179 -7.67501016 482.03615585 -7.66815853 479.19356942 C-7.67046051 477.14736658 -7.67363526 475.10116457 -7.67761302 473.0549643 C-7.6860058 467.40814137 -7.68181552 461.76138554 -7.67564058 456.11456227 C-7.67113532 450.03406136 -7.67809023 443.95357239 -7.68360043 437.87307382 C-7.69200074 426.64181047 -7.69124321 415.41056876 -7.68577749 404.17930585 C-7.6807534 393.80505009 -7.67942969 383.43080223 -7.68182278 373.0565455 C-7.68197555 372.36934522 -7.68212832 371.68214495 -7.68228572 370.97412042 C-7.68290836 368.18479966 -7.68354515 365.39547891 -7.68420524 362.60615816 C-7.69032813 336.42121125 -7.68476858 310.23627807 -7.67401145 284.05133328 C-7.6645197 260.76947365 -7.66536893 237.48763589 -7.67493343 214.20577645 C-7.68563446 188.06980769 -7.68989396 161.93385106 -7.68370891 135.79788041 C-7.68306744 133.01353733 -7.68244176 130.22919425 -7.68182278 127.44485116 C-7.68166462 126.75923637 -7.68150647 126.07362158 -7.68134352 125.36723058 C-7.67906517 114.99755228 -7.68173546 104.62788274 -7.68678188 94.25820565 C-7.69248913 82.47161567 -7.69090149 70.6850466 -7.6802204 58.89845824 C-7.67494628 52.8790896 -7.67293637 46.85976548 -7.6795187 40.84039712 C-7.68544448 35.33841687 -7.6822593 29.83652273 -7.6715636 24.33455038 C-7.66931515 22.33593456 -7.67049782 20.33731158 -7.67531517 18.33870029 C-7.68132895 15.63816869 -7.67522842 12.93793858 -7.66587353 10.23742318 C-7.67055586 9.44749357 -7.67523819 8.65756395 -7.68006241 7.84369707 C-7.63430744 1.31032365 -6.44253238 0.00086873 0 0 Z M56.58580875 40.25069833 C56.48678336 42.47540735 56.46025119 44.70333669 56.45996761 46.9302485 C56.45851417 47.64021969 56.45706073 48.35019089 56.45556325 49.08167636 C56.45187716 51.49082108 56.45540165 53.89990355 56.45882511 56.30904794 C56.45767432 58.04161479 56.45608708 59.77418139 56.45409787 61.50674748 C56.44989876 66.29122508 56.45199784 71.07568289 56.45508409 75.86016059 C56.45733561 81.01085923 56.45385981 86.16155433 56.45110416 91.31225228 C56.44664481 101.41175698 56.44762366 111.51125427 56.45051681 121.61075926 C56.45277019 129.81486677 56.45308364 138.01897219 56.45199299 146.22307992 C56.45183976 147.38830743 56.45168652 148.55353494 56.45152865 149.75407237 C56.45120894 152.12080511 56.45088473 154.48753784 56.45055605 156.85427058 C56.44770078 179.07561331 56.45098903 201.29695192 56.45635642 223.51829398 C56.4608245 242.60780843 56.46004858 261.6973168 56.45543766 280.78683114 C56.45009273 302.92570145 56.44797547 325.06456814 56.45104992 347.203439 C56.45136849 349.56173158 56.45168286 351.92002416 56.45199299 354.27831674 C56.45214726 355.43880735 56.45230154 356.59929796 56.45246049 357.79495496 C56.45332589 365.99438616 56.45186227 374.19381508 56.44951344 382.39324594 C56.44671614 392.37817437 56.44745219 402.36309494 56.45279418 412.34802246 C56.45543216 417.44777874 56.45643464 422.54752187 56.45314503 427.64727807 C56.45018402 432.3078982 56.45177157 436.9684929 56.45712258 441.62911069 C56.45824761 443.32289602 56.45765371 445.01668346 56.45524679 446.71046746 C56.45224415 448.99739239 56.45528587 451.28422804 56.45996761 453.57114816 C56.46012997 454.84608667 56.46029232 456.12102519 56.46045959 457.43459821 C56.26408067 460.15395824 56.26408067 460.15395824 57.58580875 461.25069833 C59.07507537 461.34864627 60.56898975 461.37668432 62.06147379 461.37719816 C63.52401147 461.38133778 63.52401147 461.38133778 65.01609537 461.38556102 C66.64532314 461.38247804 66.64532314 461.38247804 68.3074646 461.37933278 C69.45442498 461.38108582 70.60138537 461.38283886 71.78310212 461.38464502 C74.99521135 461.38852216 78.20728439 461.38786331 81.41939387 461.38536724 C84.90313271 461.38374292 88.3868653 461.38786765 91.87060219 461.39127642 C97.9857376 461.39644604 104.10086509 461.39784493 110.21600246 461.39682031 C119.30919458 461.39530038 128.40237787 461.39944597 137.49556827 461.40469493 C154.67767513 461.41438551 171.85977902 461.4171798 189.04188829 461.41775199 C202.30605658 461.41821082 215.57022369 461.42026546 228.83439159 461.42345262 C232.64690544 461.4243501 236.45941929 461.42523992 240.27193314 461.42612749 C241.2196253 461.42634854 242.16731746 461.42656959 243.14372756 461.42679734 C269.81453012 461.43295486 296.48533226 461.43689756 323.15613556 461.43645406 C324.66565405 461.43643069 324.66565405 461.43643069 326.20566787 461.43640685 C331.30671808 461.43632374 336.40776829 461.4362247 341.5088185 461.43612214 C342.5219798 461.4361022 343.5351411 461.43608225 344.57900425 461.4360617 C346.62786449 461.43602126 348.67672472 461.43597947 350.72558496 461.43593631 C382.61364914 461.43532334 414.50170269 461.44283273 446.38976383 461.45650887 C482.18148556 461.47185275 517.97320031 461.48047613 553.76492554 461.47954565 C557.57775374 461.47947102 561.39058195 461.47942231 565.20341015 461.47939134 C566.14228798 461.47937968 567.08116581 461.47936803 568.04849448 461.47935602 C583.19038105 461.47932518 598.33225843 461.48572466 613.47414226 461.4943236 C628.67863481 461.50277982 643.88311384 461.50380603 659.08760744 461.49721428 C668.13209369 461.49350504 677.17653903 461.49539169 686.221021 461.50515662 C692.25233911 461.51112079 698.28362733 461.50990124 704.31494402 461.50268612 C707.7581227 461.4987742 711.20122174 461.49811524 714.64439505 461.50614347 C718.34244237 461.51311166 722.04027233 461.50798309 725.73831177 461.4995873 C726.82212245 461.50455548 727.90593313 461.50952366 729.02258655 461.51464239 C730.0001152 461.50989158 730.97764384 461.50514076 731.98479456 461.50024599 C732.83154561 461.50033421 733.67829666 461.50042243 734.55070683 461.50051333 C736.81206199 461.43490238 736.81206199 461.43490238 738.58580875 459.25069833 C738.88986591 456.16768658 738.88986591 456.16768658 738.83469772 452.4637177 C738.83730501 451.75428103 738.83991229 451.04484437 738.84259859 450.31390962 C738.84894569 447.91253769 738.84090658 445.5114226 738.83304691 443.11005807 C738.83463365 441.38075231 738.8370959 439.65144716 738.84036332 437.92214376 C738.84680446 433.15130373 738.84068743 428.38054796 738.83259904 423.60971344 C738.82604305 418.47198264 738.83096591 413.3342616 738.83448124 408.19652963 C738.83953279 398.12455772 738.83386973 388.05261855 738.82463094 377.98065072 C738.81426819 366.26406173 738.81431656 354.54747991 738.81480352 342.83088721 C738.8153046 321.9334638 738.80613002 301.03605567 738.7916193 280.13863778 C738.77752916 259.83655162 738.77044857 239.5344789 738.77111149 219.23238778 C738.77117142 217.35669734 738.77117142 217.35669734 738.77123257 215.44311415 C738.77127292 214.19486729 738.77131328 212.94662043 738.77135485 211.66054791 C738.77204385 188.58189313 738.76615974 165.50324409 738.75720164 142.42459117 C738.75417909 134.24719044 738.75312135 126.06979076 738.75266933 117.89238954 C738.75198877 107.93493202 738.74754603 97.97748419 738.73833653 88.02003079 C738.73370427 82.93444545 738.73067826 77.84887252 738.73193073 72.76328492 C738.73301989 68.11565581 738.72954372 63.46805424 738.72228221 58.82043088 C738.72045796 57.13138677 738.72034907 55.44233984 738.7220495 53.75329559 C738.72409261 51.47277625 738.72008998 49.19234908 738.71444321 46.91183782 C738.71373878 45.64047913 738.71303436 44.36912045 738.71230859 43.05923575 C738.90652808 40.34655967 738.90652808 40.34655967 737.58580875 39.25069833 C736.09400395 39.1531112 734.59757427 39.1254686 733.10258102 39.12534916 C732.12586626 39.12284565 731.14915149 39.12034213 730.14283931 39.11776274 C729.05479727 39.12010391 727.96675524 39.12244508 726.84574223 39.12485719 C725.1223197 39.12267703 725.1223197 39.12267703 723.36408055 39.12045282 C720.14640184 39.11741123 716.92876038 39.11890485 713.71108307 39.12223077 C710.22132351 39.12475167 706.73156874 39.12151388 703.24180984 39.11898744 C697.11613089 39.11536281 690.99046074 39.11549322 684.86478138 39.1180346 C675.7559669 39.12180341 666.64715991 39.11989049 657.53834549 39.11682629 C641.27387194 39.11154899 625.00940231 39.11202153 608.74492839 39.11490521 C594.51198697 39.11741644 580.27904698 39.11807949 566.04610538 39.11688256 C565.10360344 39.11680618 564.16110149 39.11672979 563.19003888 39.11665109 C559.36453727 39.11633978 555.53903565 39.11602138 551.71353404 39.11569133 C515.79533131 39.11262932 479.87713109 39.11541056 443.95892875 39.12078823 C412.01717126 39.12553416 380.07541777 39.12510955 348.13366032 39.12032723 C312.28298506 39.11497768 276.43231202 39.11284644 240.58163643 39.1159395 C236.76292833 39.11626024 232.94422023 39.11657308 229.12551212 39.11688256 C227.71501952 39.11700118 227.71501952 39.11700118 226.27603211 39.11712219 C212.0487545 39.11826176 197.82147848 39.11692549 183.59420109 39.11440301 C167.42424532 39.11155046 151.2542941 39.11224419 135.0843389 39.11768375 C126.02410159 39.1206307 116.96387411 39.12079643 107.90363705 39.11703758 C101.8630957 39.11480698 95.82256229 39.11616925 89.78202212 39.12054235 C86.33277272 39.12293712 82.88354294 39.12370166 79.4342941 39.12013637 C75.73146842 39.11713604 72.02869798 39.12017305 68.32587528 39.12485719 C67.23783324 39.12251602 66.1497912 39.12017485 65.0287782 39.11776274 C63.56370605 39.12151802 63.56370605 39.12151802 62.06903648 39.12534916 C61.22088161 39.12541692 60.37272673 39.12548468 59.49887019 39.12555449 C57.57654751 39.0401457 57.57654751 39.0401457 56.58580875 40.25069833 Z " fill="#151516" transform="translate(113.41419124603271,11.749301671981812)"/>
<path d="M0 0 C210.54 0 421.08 0 638 0 C638 118.14 638 236.28 638 358 C619.85810811 348.92905405 619.85810811 348.92905405 613.25 344.875 C608.57407034 342.0643319 603.91611742 339.37746662 599 337 C594.22242325 334.68242212 589.6792317 332.09560007 585.125 329.375 C578.43747752 325.3809675 571.66186209 321.58451121 564.8125 317.875 C557.8516854 314.10453417 550.939518 310.27950434 544.08203125 306.32421875 C538.25667777 302.98685694 532.37207871 299.75416217 526.5 296.5 C518.40332028 292.0123086 510.3248783 287.49941628 502.30078125 282.8828125 C497.49486432 280.14144924 492.65404564 277.46399163 487.81469727 274.78222656 C480.84882338 270.92092661 473.90579996 267.01994448 466.96777344 263.10888672 C463.64634821 261.23718531 460.32309483 259.36873501 457 257.5 C453.02255022 255.26328993 449.04544132 253.02598919 445.0703125 250.78515625 C438.09979624 246.85721587 431.11986171 242.94694165 424.125 239.0625 C423.36767578 238.64186279 422.61035156 238.22122559 421.83007812 237.7878418 C418.17047854 235.75632873 414.50901004 233.72831436 410.84375 231.70703125 C400.82466309 226.17284559 390.88455946 220.50670542 380.9571228 214.81039429 C374.33179309 211.01129795 367.70530759 207.22859527 360.9375 203.6875 C354.65182056 200.39293698 348.52764119 196.85814429 342.40063477 193.27832031 C335.78254855 189.42302142 329.08384284 185.73078237 322.35864258 182.06640625 C316.83922235 179.04627469 311.40303365 175.91067223 306 172.6875 C301.40449253 169.94716128 296.81842155 167.33719632 292 165 C287.22242325 162.68242212 282.6792317 160.09560007 278.125 157.375 C270.51607181 152.83067038 262.77704893 148.56205996 254.98339844 144.34375 C248.49383502 140.82771141 242.06567078 137.2238728 235.6796875 133.5234375 C233.48034404 132.27308189 231.27696508 131.10035155 229 130 C229 129.34 229 128.68 229 128 C228.27433838 127.88769043 227.54867676 127.77538086 226.80102539 127.65966797 C223.85852414 126.9666811 221.79259665 125.95700329 219.18359375 124.4453125 C217.80518311 123.6550769 217.80518311 123.6550769 216.39892578 122.84887695 C215.42165527 122.27999756 214.44438477 121.71111816 213.4375 121.125 C211.36129356 119.93251978 209.28445916 118.74113228 207.20703125 117.55078125 C206.16498535 116.95217285 205.12293945 116.35356445 204.04931641 115.73681641 C199.60510326 113.20550077 195.11718864 110.75731281 190.625 108.3125 C184.4516767 104.94302107 178.35375034 101.47574986 172.3125 97.875 C166.02276501 94.12649767 159.63408707 90.63391182 153.14575195 87.24243164 C147.72299292 84.40247252 142.4040252 81.41114443 137.1015625 78.3515625 C131.71770647 75.25260283 126.29496902 72.22269893 120.875 69.1875 C119.79186523 68.58091553 118.70873047 67.97433105 117.59277344 67.34936523 C110.99523248 63.6602747 104.38073152 60.00402634 97.75 56.375 C90.06595088 52.16890485 82.45378068 47.84688986 74.85888672 43.48217773 C68.90063075 40.06538153 62.90328479 36.72897055 56.875 33.4375 C49.40047633 29.35634093 42.01514209 25.1411388 34.66064453 20.84790039 C30.23176133 18.26941555 25.77828605 15.77460457 21.25 13.375 C16.31578897 10.75190975 11.48669641 7.98532106 6.6875 5.125 C5.68928223 4.53404541 5.68928223 4.53404541 4.67089844 3.93115234 C3.09577002 2.98365971 1.54502538 1.99582548 0 1 C0 0.67 0 0.34 0 0 Z " fill="#A7F0E5" transform="translate(214,52)"/>
<path d="M0 0 C1.39486949 -0.00387127 2.78973502 -0.00949542 4.18459123 -0.0167096 C8.02502185 -0.0314734 11.86504536 -0.02129009 15.70546324 -0.0070976 C19.88066686 0.00393805 24.05581308 -0.00820026 28.23101223 -0.01740509 C35.55098987 -0.03032508 42.87084655 -0.02833406 50.19082451 -0.0166254 C61.07563036 0.00073778 71.96034083 -0.00473488 82.84515158 -0.01479231 C102.28306231 -0.03199936 121.72091671 -0.02643403 141.15882629 -0.01143513 C158.16778701 0.00160534 175.17672816 0.0068148 192.18569374 0.00424671 C193.31297322 0.0040863 194.4402527 0.00392588 195.60169216 0.0037606 C200.17741186 0.00309704 204.75313156 0.00239464 209.32885125 0.00163526 C252.26962431 -0.00539193 295.21036291 0.01011347 338.15112719 0.03625872 C376.32379428 0.05937765 414.49642349 0.06476113 452.66909599 0.05452633 C462.44434991 0.05192444 472.21960382 0.04933946 481.99485779 0.04692841 C483.79988209 0.04648223 483.79988209 0.04648223 485.64137153 0.04602705 C517.51475467 0.03841725 549.38813469 0.04481969 581.26151645 0.05562443 C584.68987313 0.05677226 588.11822981 0.05791544 591.54658649 0.05905125 C593.820979 0.0598065 596.0953715 0.06057214 598.369764 0.06134826 C615.3718184 0.06701334 632.373863 0.0656721 649.37591743 0.06112003 C668.70108947 0.05601959 688.02622478 0.06183251 707.35138763 0.08201433 C718.1749318 0.093026 728.99840381 0.09577047 739.82195022 0.0867258 C747.0427639 0.08152436 754.26351558 0.08715697 761.48431622 0.10177914 C765.6043265 0.10981938 769.72419045 0.11304429 773.84420015 0.10320658 C777.58843958 0.09436744 781.33239676 0.09920208 785.07661023 0.11518602 C787.06553575 0.12009094 789.05448073 0.11021896 791.04338521 0.09983739 C792.80775195 0.11148756 792.80775195 0.11148756 794.60776246 0.12337309 C795.6211622 0.12380011 796.63456194 0.12422713 797.67867077 0.12466708 C802.19451589 0.73939581 805.37546526 2.99142612 808.19009209 6.50057125 C811.70109577 11.18190949 811.58253846 15.04088478 811.56593323 20.66443348 C811.56738667 21.51058387 811.56884011 22.35673427 811.57033759 23.22852558 C811.5740126 26.08890901 811.57050422 28.94923965 811.56707573 31.80962276 C811.56822696 33.87104893 811.56981449 35.93247489 811.57180297 37.99390042 C811.57599612 43.67826173 811.57390565 49.36260636 811.57081676 55.04696774 C811.5685628 61.1697684 811.57204227 67.2925661 811.57479668 73.41536617 C811.57899567 84.72376239 811.5786186 96.03215177 811.57588521 107.34054783 C811.57337235 117.78753705 811.57271169 128.23452432 811.57390785 138.68151379 C811.57402243 139.71987611 811.57402243 139.71987611 811.57413932 140.77921544 C811.57445065 143.58907896 811.57476905 146.39894247 811.57509909 149.20880598 C811.5781602 175.58441815 811.57538139 201.96002692 811.57000219 228.33563856 C811.5652574 251.77880155 811.56568009 275.2219591 811.57046318 298.66512203 C811.57581596 324.98863627 811.57794208 351.31214749 811.57485092 377.6356622 C811.57453019 380.44110719 811.57421735 383.24655219 811.57390785 386.05199718 C811.57382877 386.74279581 811.5737497 387.43359443 811.57366822 388.14532635 C811.57252988 398.58543683 811.57386267 409.02554514 811.57638741 419.46565533 C811.57924365 431.33593896 811.57844184 443.20621618 811.57310666 455.07649957 C811.57047292 461.13674096 811.56945908 467.19697132 811.57275581 473.25721264 C811.57572551 478.79999571 811.57411461 484.34275746 811.56877826 489.88553859 C811.56765696 491.89561859 811.56823895 493.90570036 811.57065405 495.91577922 C811.57367601 498.63888768 811.57059472 501.3619222 811.56593323 504.08502674 C811.56827439 504.87320685 811.57061556 505.66138696 811.57302767 506.47345132 C811.55988923 510.2896649 811.25142485 513.77729867 810.44009209 517.50057125 C810.98318427 519.40586082 810.98318427 519.40586082 812.04165459 521.23494625 C815.49815235 528.42090126 817.53243997 536.13208091 819.81509209 543.75057125 C820.30650917 545.37687723 820.79821027 547.00309742 821.29018974 548.62923336 C825.43363748 562.35585505 829.55474941 576.09056774 833.11454582 589.98206234 C836.31560792 602.42764004 840.07406203 614.68767592 843.85879326 626.96565914 C847.0135958 637.21763844 850.01291546 647.44885442 852.53896904 657.87435055 C853.93459427 663.49050378 855.58302842 669.02330798 857.25259209 674.56307125 C857.59516045 675.71210934 857.93772881 676.86114742 858.29067802 678.04500484 C859.95781776 683.6233927 861.64894543 689.19363068 863.37368584 694.7544775 C863.68007988 695.74633053 863.98647392 696.73818356 864.30215263 697.76009274 C864.86457845 699.57510285 865.43185203 701.38862381 866.00576591 703.20003414 C867.66112216 708.53577027 869.01002724 713.90075485 870.24087334 719.3482275 C872.59267405 729.66199767 875.74189519 739.71571596 878.87759209 749.81307125 C882.10272235 760.2028955 885.28758486 770.56046057 887.83071709 781.14119625 C891.2050214 795.13499072 895.62568105 808.83204118 899.87881279 822.57796383 C900.9636668 826.09076802 902.04015193 829.60605541 903.11587334 833.121665 C903.45016853 834.19242779 903.78446373 835.26319057 904.12888908 836.36640072 C904.43308266 837.36256908 904.73727623 838.35873745 905.05068779 839.38509274 C905.31984505 840.25520489 905.5890023 841.12531704 905.86631584 842.02179623 C906.44009209 844.50057125 906.44009209 844.50057125 906.44009209 849.50057125 C568.52009209 849.50057125 230.60009209 849.50057125 -117.55990791 849.50057125 C-117.55990791 844.10016575 -117.4618815 841.3071737 -115.97104073 836.45198727 C-115.62357796 835.30291393 -115.27611519 834.1538406 -114.91812325 832.96994686 C-114.53694344 831.74384197 -114.15576363 830.51773708 -113.76303291 829.2544775 C-113.36809064 827.95788955 -112.97412701 826.66100314 -112.58108711 825.36383724 C-111.54530497 821.95292828 -110.49866748 818.54545728 -109.448946 815.13881588 C-107.58276963 809.07704012 -105.73422166 803.00986516 -103.88803291 796.9419775 C-103.68951288 796.2907328 -103.49099285 795.63948811 -103.28645706 794.96850872 C-100.80949648 786.83170151 -98.52598242 778.714096 -96.55844307 770.43978024 C-94.05886081 760.25185645 -90.74757271 750.24457119 -87.69882393 740.21102047 C-84.30129507 729.01118989 -81.05974537 717.82232279 -78.29564095 706.4483099 C-76.50716509 699.13612733 -74.35442222 691.98405662 -72.05990791 684.81307125 C-71.27010212 682.30158613 -70.48103419 679.78986884 -69.69272041 677.277915 C-69.32179268 676.10083981 -68.95086494 674.92376461 -68.56869698 673.71102047 C-65.53248518 664.04834256 -62.76371898 654.35890171 -60.28256416 644.53841305 C-56.80021537 630.77450969 -52.8279504 617.22556853 -48.55551338 603.68880367 C-45.90420622 595.23660258 -43.58149762 586.76276112 -41.48382759 578.15645504 C-39.36967552 569.56101742 -36.89104065 561.08774882 -34.33041573 552.61604977 C-33.55332359 550.04125495 -32.78672401 547.46348665 -32.02084541 544.88533688 C-29.47822538 536.39672774 -26.80444515 528.11730836 -23.34506416 519.94954586 C-22.26345745 517.40531891 -22.26345745 517.40531891 -23.55990791 514.50057125 C-23.65747689 511.75095276 -23.69742532 509.0267733 -23.69133568 506.27703285 C-23.69338831 505.42442856 -23.69544095 504.57182427 -23.69755578 503.69338349 C-23.70325014 500.8110392 -23.70176554 497.92874234 -23.70034981 495.04639339 C-23.70293204 492.96918044 -23.70594481 490.89196798 -23.70935321 488.81475621 C-23.71744301 483.08672226 -23.71921388 477.35870083 -23.71995068 471.63066185 C-23.72179778 465.4608046 -23.72934334 459.2909539 -23.73608589 453.12110043 C-23.75039281 438.9170749 -23.75619742 424.71305349 -23.76077784 410.50902249 C-23.76311269 403.49235139 -23.76671521 396.4756811 -23.77047321 389.45901064 C-23.78330911 365.44758482 -23.79402862 341.43615947 -23.79747581 317.4247303 C-23.79769745 315.91709259 -23.79791923 314.40945487 -23.79814117 312.90181716 C-23.79836181 311.39050733 -23.79858229 309.8791975 -23.79880261 308.36788768 C-23.79924517 305.33586228 -23.79969229 302.30383688 -23.80014229 299.27181149 C-23.80030637 298.14416023 -23.80030637 298.14416023 -23.80047378 296.99372814 C-23.80410542 272.61079031 -23.82002931 248.2278822 -23.84333265 223.84495575 C-23.86791647 198.0752024 -23.88164797 172.30546604 -23.88284373 146.53570062 C-23.88301519 143.7080506 -23.88323062 140.8804006 -23.88347816 138.05275059 C-23.88356182 137.00835488 -23.88356182 137.00835488 -23.88364716 135.94286028 C-23.88479883 124.72761948 -23.89583058 113.51240912 -23.91036522 102.29717862 C-23.92471589 91.02926465 -23.92772233 79.76138927 -23.91992524 68.49346515 C-23.91600778 62.38648404 -23.91700167 56.27960558 -23.93098259 50.17263699 C-23.9436558 44.58595567 -23.94258217 38.99945483 -23.93039188 33.412774 C-23.92842343 31.38786956 -23.93156582 29.36295261 -23.94023624 27.33806577 C-23.95125207 24.59236682 -23.94389522 21.84731347 -23.93184471 19.10163307 C-23.9394399 18.30966259 -23.9470351 17.51769212 -23.95486045 16.70172253 C-23.90892153 11.87579672 -23.36195188 8.47097357 -20.55990791 4.50057125 C-14.3291954 -0.64132326 -7.79708354 -0.05850614 0 0 Z M-11.55990791 14.50057125 C-11.75716682 17.19664101 -11.82757851 19.78999787 -11.81159019 22.4872961 C-11.81449708 23.32643795 -11.81740396 24.16557979 -11.82039893 25.03015018 C-11.82776111 27.87273779 -11.82072683 30.71511373 -11.8138752 33.55770016 C-11.81617718 35.603903 -11.81935192 37.65010501 -11.82332969 39.69630527 C-11.83172247 45.34312821 -11.82753219 50.98988404 -11.82135725 56.63670731 C-11.81685199 62.71720822 -11.8238069 68.79769719 -11.82931709 74.87819576 C-11.83771741 86.10945911 -11.83695987 97.34070082 -11.83149416 108.57196373 C-11.82647007 118.94621949 -11.82514635 129.32046735 -11.82753944 139.69472408 C-11.82769221 140.38192436 -11.82784498 141.06912463 -11.82800238 141.77714916 C-11.82862502 144.56646991 -11.82926182 147.35579067 -11.82992191 150.14511142 C-11.8360448 176.33005833 -11.83048525 202.51499151 -11.81972812 228.6999363 C-11.81023637 251.98179593 -11.8110856 275.26363369 -11.8206501 298.54549313 C-11.83135113 324.68146189 -11.83561063 350.81741852 -11.82942557 376.95338917 C-11.8287841 379.73773225 -11.82815843 382.52207533 -11.82753944 385.30641842 C-11.82738129 385.99203321 -11.82722313 386.677648 -11.82706019 387.384039 C-11.82478183 397.7537173 -11.82745212 408.12338684 -11.83249855 418.49306393 C-11.8382058 430.2796539 -11.83661815 442.06622298 -11.82593706 453.85281134 C-11.82066295 459.87217998 -11.81865304 465.8915041 -11.82523537 471.91087246 C-11.83116114 477.41285271 -11.82797597 482.91474685 -11.81728026 488.4167192 C-11.81503182 490.41533502 -11.81621448 492.413958 -11.82103184 494.41256928 C-11.82704562 497.11310089 -11.82094508 499.813331 -11.81159019 502.5138464 C-11.81627253 503.30377601 -11.82095486 504.09370563 -11.82577908 504.90757251 C-11.94886443 509.16547921 -11.94886443 509.16547921 -9.55990791 512.50057125 C-7.08339994 512.80414086 -7.08339994 512.80414086 -4.14571667 512.75126958 C-2.98640027 512.75627662 -1.82708387 512.76128365 -0.63263667 512.76644242 C1.29827839 512.75941892 1.29827839 512.75941892 3.26820183 512.75225353 C4.64450407 512.75433778 6.02080523 512.75729876 7.39710391 512.76106226 C11.20917743 512.76890489 15.02115068 512.76416213 18.8332227 512.75750636 C22.96905101 512.75246097 27.10486321 512.75894159 31.24068928 512.76399302 C38.49919182 512.77123963 45.75766465 512.77098308 53.01616859 512.7658987 C63.80950572 512.75835868 74.60281761 512.76218818 85.39615455 512.76831532 C104.6688666 512.77886804 123.94156541 512.77792559 143.21427873 512.77215749 C160.07974292 512.76713439 176.94520225 512.76580923 193.81066704 512.76820278 C194.92763481 512.76835555 196.04460259 512.76850832 197.19541787 512.76866572 C201.7290923 512.76928836 206.26276672 512.76992515 210.79644113 512.77058525 C253.36096146 512.77670882 295.92547334 512.7711475 338.48999237 512.76039146 C376.3395744 512.75089963 414.18914298 512.75174886 452.0387249 512.76131344 C494.52338334 512.77201331 537.0080343 512.77627461 579.4926939 512.77008891 C584.01830164 512.76944744 588.54390939 512.76882176 593.06951714 512.76820278 C594.18390858 512.76804463 595.29830002 512.76788647 596.4464609 512.76772352 C613.30492553 512.76544469 630.16338479 512.76811635 647.02184868 512.77316189 C666.18289403 512.77886783 685.34392403 512.7774777 704.50496745 512.7666004 C715.24023346 512.76070794 725.97546628 512.760373 736.71073146 512.76789275 C743.8690427 512.77235567 751.02732717 512.76962625 758.18563442 512.76088321 C762.27247714 512.75609608 766.35925361 512.75455967 770.44609439 512.76169518 C774.15675416 512.76810826 777.86728829 512.76548066 781.57793872 512.75533386 C783.55623396 512.75233796 785.53453642 512.75924662 787.51282084 512.76644242 C788.67213724 512.76143538 789.83145364 512.75642834 791.02590084 512.75126958 C792.03090447 512.75113406 793.03590809 512.75099854 794.07136637 512.75085892 C796.62817584 512.73174783 796.62817584 512.73174783 798.44009209 510.50057125 C798.63735099 507.80450149 798.70776269 505.21114463 798.69177437 502.5138464 C798.69468125 501.67470455 798.69758813 500.83556271 798.7005831 499.97099233 C798.70794528 497.12840471 798.70091101 494.28602878 798.69405937 491.44344234 C798.69636135 489.39723951 798.6995361 487.35103749 798.70351386 485.30483723 C798.71190664 479.65801429 798.70771636 474.01125846 798.70154142 468.3644352 C798.69703616 462.28393428 798.70399107 456.20344532 798.70950127 450.12294674 C798.71790158 438.89168339 798.71714405 427.66044168 798.71167833 416.42917877 C798.70665424 406.05492301 798.70533053 395.68067515 798.70772362 385.30641842 C798.70787639 384.61921814 798.70802916 383.93201787 798.70818656 383.22399335 C798.7088092 380.43467259 798.70944599 377.64535183 798.71010609 374.85603108 C798.71622897 348.67108417 798.71066942 322.48615099 798.69991229 296.3012062 C798.69042054 273.01934657 798.69126977 249.73750882 798.70083427 226.45564938 C798.7115353 200.31968061 798.7157948 174.18372398 798.70960975 148.04775333 C798.70896828 145.26341025 798.7083426 142.47906717 798.70772362 139.69472408 C798.70756546 139.00910929 798.70740731 138.3234945 798.70724436 137.6171035 C798.70496601 127.24742521 798.7076363 116.87775566 798.71268272 106.50807858 C798.71838997 94.7214886 798.71680233 82.93491952 798.70612124 71.14833117 C798.70084712 65.12896252 798.69883721 59.1096384 798.70541954 53.09027004 C798.71134532 47.58828979 798.70816014 42.08639565 798.69746444 36.5844233 C798.69521599 34.58580748 798.69639866 32.5871845 798.70121601 30.58857322 C798.70722979 27.88804161 798.70112926 25.1878115 798.69177437 22.4872961 C798.69879787 21.30240168 798.69879787 21.30240168 798.70596325 20.09356999 C798.8290486 15.8356633 798.8290486 15.8356633 796.44009209 12.50057125 C793.96358411 12.19700164 793.96358411 12.19700164 791.02590084 12.24987292 C789.28692624 12.24236237 789.28692624 12.24236237 787.51282084 12.23470008 C786.22554414 12.23938242 784.93826743 12.24406475 783.61198235 12.24888897 C782.2356801 12.24680472 780.85937895 12.24384374 779.48308027 12.24008024 C775.67100675 12.23223761 771.8590335 12.23698037 768.04696147 12.24363614 C763.91113316 12.24868153 759.77532096 12.24220091 755.6394949 12.23714948 C748.38099235 12.22990288 741.12251952 12.23015942 733.86401558 12.2352438 C723.07067845 12.24278382 712.27736656 12.23895432 701.48402962 12.23282718 C682.21131758 12.22227447 662.93861876 12.22321691 643.66590545 12.22898501 C626.80044125 12.23400811 609.93498192 12.23533327 593.06951714 12.23293972 C591.95254936 12.23278695 590.83558158 12.23263418 589.6847663 12.23247678 C585.15109188 12.23185414 580.61741746 12.23121735 576.08374304 12.23055725 C533.51922271 12.22443368 490.95471083 12.229995 448.39019181 12.24075105 C410.54060977 12.25024287 372.69104119 12.24939364 334.84145927 12.23982906 C292.35680084 12.22912919 249.87214987 12.22486789 207.38749027 12.23105359 C202.86188253 12.23169506 198.33627478 12.23232074 193.81066704 12.23293972 C192.13907988 12.23317695 192.13907988 12.23317695 190.43372328 12.23341898 C173.57525864 12.23569781 156.71679939 12.23302615 139.85833549 12.22798061 C120.69729015 12.22227467 101.53626015 12.22366481 82.37521672 12.2345421 C71.63995071 12.24043456 60.9047179 12.2407695 50.16945272 12.23324975 C43.01114147 12.22878683 35.85285701 12.23151625 28.69454975 12.24025929 C24.60770703 12.24504642 20.52093056 12.24658283 16.43408978 12.23944733 C12.72343001 12.23303424 9.01289588 12.23566184 5.30224545 12.24580865 C3.32395022 12.24880454 1.34564775 12.24189588 -0.63263667 12.23470008 C-1.79195307 12.23970712 -2.95126947 12.24471416 -4.14571667 12.24987292 C-5.6532221 12.2500762 -5.6532221 12.2500762 -7.1911822 12.25028358 C-9.74799167 12.26939468 -9.74799167 12.26939468 -11.55990791 14.50057125 Z M-13.34583569 527.34606962 C-14.91739479 530.13497013 -15.64410526 532.82180751 -16.42709541 535.9263525 C-16.91569038 537.82284542 -16.91569038 537.82284542 -17.41415596 539.75765133 C-17.58087807 540.42052151 -17.74760017 541.08339169 -17.91937447 541.76634884 C-18.78263689 545.19359215 -19.6765279 548.61277677 -20.57162666 552.03182125 C-20.74505089 552.69579418 -20.91847511 553.35976711 -21.09715462 554.04386044 C-22.62672577 559.85303422 -24.44091376 565.49608638 -26.41537666 571.16854 C-29.83674206 581.1290338 -32.5395711 591.23589625 -34.87240791 601.50057125 C-36.93883172 610.54086204 -39.6428554 619.28926238 -42.53427315 628.09627438 C-44.85125152 635.18621721 -46.98313296 642.30144165 -48.93490791 649.50057125 C-49.17330391 650.37769772 -49.41169991 651.25482418 -49.65732002 652.15853024 C-50.72470335 656.15244812 -51.7203815 660.14826827 -52.59897041 664.18807125 C-53.95015805 670.39004297 -55.82009014 676.37237464 -57.87240791 682.37557125 C-59.98878301 688.63700799 -61.91277724 694.94049465 -63.74789619 701.28963375 C-65.28898947 706.61940053 -66.93944488 711.90698631 -68.66537666 717.18025875 C-69.38626822 719.85605712 -69.85258477 722.34062731 -70.27084541 725.0669775 C-71.91742646 734.4551132 -75.12961818 743.49305219 -77.99740791 752.56307125 C-78.88161384 755.38173482 -79.76399707 758.2009649 -80.64634895 761.02020931 C-81.19245766 762.76268355 -81.73998787 764.50471322 -82.28926277 766.24619198 C-86.051904 777.66276421 -86.051904 777.66276421 -88.62240791 789.37557125 C-89.15546207 792.85819173 -89.98467294 795.37433569 -91.55990791 798.50057125 C-91.99827203 800.28230927 -92.38802386 802.07623899 -92.74740791 803.87557125 C-94.404838 811.43759601 -96.79161466 818.72721717 -99.22274971 826.07234859 C-99.5235041 826.9896777 -99.8242585 827.9070068 -100.13412666 828.85213375 C-100.54537788 830.08697506 -100.54537788 830.08697506 -100.96493721 831.34676266 C-101.69304221 833.61010807 -101.69304221 833.61010807 -101.55990791 836.50057125 C225.47009209 836.50057125 552.50009209 836.50057125 889.44009209 836.50057125 C888.69572048 829.95424574 888.69572048 829.95424574 887.10024834 823.8794775 C886.84179131 823.08863766 886.58333427 822.29779781 886.31704521 821.48299313 C885.91389091 820.2851318 885.91389091 820.2851318 885.50259209 819.06307125 C883.67613776 813.58370827 882.05453092 808.20201839 880.96523857 802.52376461 C880.50707745 800.45555313 880.50707745 800.45555313 879.43520927 798.54329586 C878.30085455 796.2147517 877.95987006 794.22453603 877.58462334 791.66463375 C876.48631388 785.2159424 874.65654298 779.06460505 872.72826958 772.82070065 C872.11455715 770.83336118 871.50844412 768.84383692 870.90420341 766.85359859 C870.10887249 764.23577113 869.31106521 761.61872667 868.51040459 759.00252438 C865.46099426 749.02516541 862.54550251 739.06522302 860.09243584 728.92098141 C858.39731082 722.06598853 856.31321353 715.33733372 854.22891045 708.59236813 C851.63460396 700.19188865 849.16713141 691.75818079 846.74941826 683.30525875 C846.47589531 682.35650875 846.20237236 681.40775875 845.92056084 680.43025875 C845.56320854 679.18091549 845.56320854 679.18091549 845.19863701 677.90633297 C844.45633325 675.444456 844.45633325 675.444456 843.39248466 672.89656734 C842.40331161 670.40804021 841.86310136 667.95997034 841.35024834 665.33699703 C839.36567741 655.24167371 836.44022271 645.45447168 833.44009209 635.62557125 C833.22489922 634.91896358 833.00970634 634.21235592 832.78799248 633.4843359 C830.3763963 625.58413733 827.88645024 617.71457054 825.2430706 609.88826656 C823.53070281 604.79645842 822.28289879 599.72671526 821.22915459 594.465415 C819.45579944 586.14928725 817.08055385 578.04757574 814.62392998 569.91097164 C813.86972877 567.41201711 813.12403964 564.9106361 812.37954521 562.40877438 C811.89891215 560.80250886 811.41780974 559.1963837 810.93618584 557.590415 C810.715308 556.85081036 810.49443016 556.11120571 810.26685905 555.3491888 C809.14822123 551.652889 807.89068474 548.07721161 806.44009209 544.50057125 C806.00784953 543.04449445 805.60099574 541.58061153 805.22134209 540.10994625 C805.0112249 539.31846188 804.80110771 538.5269775 804.58462334 537.71150875 C804.1511051 536.0562573 803.72148249 534.39998117 803.29556084 532.74275875 C803.08544365 531.95643063 802.87532646 531.1701025 802.65884209 530.35994625 C802.37943779 529.28438473 802.37943779 529.28438473 802.09438896 528.18709469 C801.5749671 526.28795882 801.5749671 526.28795882 799.44009209 525.50057125 C797.62710936 525.40421877 795.81053217 525.37309711 793.99499136 525.37177008 C792.24565047 525.36686179 792.24565047 525.36686179 790.46096936 525.36185434 C789.16595678 525.36333797 787.87094419 525.36482159 786.5366888 525.36635017 C785.15216293 525.36439863 783.76763762 525.36201032 782.38311318 525.3592222 C778.54822555 525.35279436 774.71335879 525.35266279 770.8784668 525.35349961 C766.71786433 525.35333066 762.55726947 525.34743073 758.39667076 525.34225875 C750.13113952 525.33291271 741.86561363 525.32900735 733.60007777 525.32673979 C723.70546765 525.32378298 713.81086468 525.31508875 703.91625831 525.30632551 C679.999259 525.28546033 656.08225844 525.27500868 632.16525215 525.2661959 C620.85850186 525.26199298 609.55175211 525.25677057 598.24500227 525.25151137 C559.56582192 525.23362081 520.88664142 525.21862263 482.20745754 525.21119118 C479.77825775 525.21071642 477.34905795 525.21024053 474.91985815 525.20976352 C473.71515679 525.20952714 472.51045543 525.20929076 471.26924796 525.20904722 C465.16530733 525.20784599 459.0613667 525.20663055 452.95742607 525.20540524 C451.7460667 525.20516509 450.53470732 525.20492494 449.28664009 525.20467751 C409.98599364 525.19677951 370.68537732 525.17333754 331.38474404 525.14084929 C289.86540945 525.10658936 248.3460925 525.08684367 206.82674354 525.08354694 C202.27331379 525.08312937 197.71988405 525.0826498 193.16645432 525.08212376 C191.48459466 525.08193897 191.48459466 525.08193897 189.76875804 525.08175045 C171.6879096 525.0794138 153.60709603 525.06372817 135.52626004 525.04328191 C117.37011876 525.02307538 99.21401958 525.01752203 81.05786914 525.02705254 C70.25833977 525.0322875 59.45895006 525.02629648 48.65944066 525.00451787 C41.45702299 524.99108521 34.25470227 524.99201949 27.05228381 525.00491983 C22.9410077 525.01186704 18.83000004 525.01231558 14.71874709 524.99535974 C10.98469141 524.98008403 7.25112276 524.98293841 3.51708243 525.00077002 C1.52875813 525.00544686 -0.45958197 524.99033309 -2.4478496 524.97461024 C-3.61658038 524.98385564 -4.78531116 524.99310104 -5.98945802 525.0026266 C-7.50608833 525.00202632 -7.50608833 525.00202632 -9.05335763 525.00141392 C-11.68347099 525.27806726 -11.68347099 525.27806726 -13.34583569 527.34606962 Z " fill="#FCFCFC" transform="translate(117.55990791320801,-0.5005712509155273)"/>
<path d="M0 0 C66.33 0 132.66 0 201 0 C204.33333333 11.11111111 204.33333333 11.11111111 205.47265625 16.69921875 C206.71154323 22.10443676 208.43097738 27.32977825 210.25 32.5625 C212.77642125 39.97416568 214.84171198 47.49417325 216.85644531 55.05883789 C218.27351821 60.37770762 219.78202663 65.64742353 221.44482422 70.89526367 C222 73 222 73 222 76 C142.14 76 62.28 76 -20 76 C-17.7582038 60.3074266 -17.7582038 60.3074266 -15.875 54.75 C-15.43509164 53.41051906 -14.9963832 52.07064372 -14.55859375 50.73046875 C-14.3147998 49.99489746 -14.07100586 49.25932617 -13.81982422 48.50146484 C-9.23573265 34.51438856 -4.82871501 20.48613157 -1.69140625 6.09765625 C-1 3 -1 3 0 0 Z " fill="#4B4B4B" transform="translate(411,722)"/>
</svg>
