<?xml version="1.0" encoding="UTF-8"?>
<svg version="1.1" xmlns="http://www.w3.org/2000/svg" width="512" height="512">
<path d="M0 0 C8.96676506 5.73133437 15.76608163 12.96272009 18.2734375 23.453125 C20.13813187 23.46192436 20.13813187 23.46192436 22.04049683 23.47090149 C33.78099149 23.52822363 45.52130263 23.60103491 57.26161003 23.68883991 C63.29678882 23.73348345 69.33190104 23.77275297 75.3671875 23.79956055 C81.19635801 23.82565333 87.02527151 23.86609831 92.85428238 23.91631126 C95.07327187 23.93293955 97.29230577 23.94447888 99.51134872 23.95073891 C102.63007013 23.96042385 105.74813996 23.98853606 108.86669922 24.02075195 C109.77517105 24.01931686 110.68364288 24.01788177 111.61964417 24.0164032 C123.45152199 24.18818864 132.77612284 28.14004207 141.4609375 36.078125 C154.83419191 49.95156018 151.2734375 68.12458199 151.2734375 86.453125 C180.9734375 86.453125 210.6734375 86.453125 241.2734375 86.453125 C241.2734375 76.553125 241.2734375 66.653125 241.2734375 56.453125 C244.7436098 44.88588401 249.19489848 35.0305861 260.05859375 28.875 C267.93540787 25.18572501 274.50822802 24.30125618 283.11254883 24.24780273 C284.09838959 24.23790314 285.08423035 24.22800354 286.09994507 24.21780396 C289.35176204 24.18626883 292.60359361 24.16146307 295.85546875 24.13671875 C298.11277135 24.11614233 300.37007016 24.09514568 302.62736511 24.07374573 C308.56371993 24.01859614 314.50010912 23.96915548 320.43652344 23.92089844 C326.4961248 23.87063147 332.55567636 23.81497253 338.61523438 23.75976562 C350.50125952 23.65227105 362.38732794 23.55080676 374.2734375 23.453125 C374.53889374 22.76591873 374.80434998 22.07871246 375.07785034 21.37068176 C375.43098297 20.46952133 375.7841156 19.5683609 376.14794922 18.63989258 C376.66988358 17.29970818 376.66988358 17.29970818 377.20236206 15.93244934 C380.64693488 7.95895567 387.36363779 2.74781344 395.109375 -0.70703125 C403.21957187 -3.85449032 414.41345746 -4.0254223 422.7109375 -1.109375 C432.16974642 3.49089896 438.50620144 10.74592139 442.2734375 20.453125 C444.99346618 28.61321105 444.48450818 40.42561648 440.7265625 48.1796875 C435.24100965 56.76192342 428.52256883 63.31722023 418.6484375 66.2265625 C406.895332 68.79755433 397.40939505 66.93674031 387.2734375 60.453125 C380.61739211 55.40599124 377.01692929 49.28790443 374.2734375 41.453125 C374.2734375 40.793125 374.2734375 40.133125 374.2734375 39.453125 C361.50346488 39.51440176 348.73369552 39.59155571 335.96394348 39.68883991 C330.03408168 39.73351966 324.10428821 39.77278128 318.17431641 39.79956055 C312.44889348 39.8256171 306.72373381 39.8660367 300.99847412 39.91631126 C298.81690756 39.93296397 296.63529548 39.94448816 294.45367432 39.95073891 C291.3920142 39.96039713 288.33102521 39.98847786 285.26953125 40.02075195 C284.37257034 40.01931686 283.47560944 40.01788177 282.5514679 40.0164032 C274.79179258 40.13167822 267.94893586 41.77762664 262.2734375 47.453125 C258.26222597 53.25312005 257.17799098 58.02430128 256.95703125 64.96875 C256.91513672 66.21914062 256.87324219 67.46953125 256.83007812 68.7578125 C256.77110352 70.71074219 256.77110352 70.71074219 256.7109375 72.703125 C256.66775391 74.02054687 256.62457031 75.33796875 256.58007812 76.6953125 C256.47401833 79.94781288 256.37195726 83.20038892 256.2734375 86.453125 C257.13628357 86.44202194 257.99912964 86.43091888 258.88812256 86.41947937 C267.06647318 86.31880465 275.24461219 86.24292187 283.42344284 86.19406414 C287.62713052 86.16810022 291.83030118 86.13294828 296.03369141 86.07592773 C300.09917444 86.02113048 304.16416392 85.99160548 308.2299881 85.97873878 C309.77199308 85.96958355 311.31397464 85.9517081 312.8557663 85.92447472 C323.80115681 85.73903743 333.55381346 86.95786985 342.6484375 93.703125 C351.87944337 103.37370258 354.74814562 112.70553745 354.56640625 125.828125 C354.56216141 126.9931958 354.55791656 128.1582666 354.55354309 129.35864258 C354.536834 133.05704465 354.49919511 136.75488934 354.4609375 140.453125 C354.44588067 142.97004418 354.43219402 145.48697195 354.41992188 148.00390625 C354.38695576 154.15385855 354.33522629 160.30339747 354.2734375 166.453125 C360.8734375 166.453125 367.4734375 166.453125 374.2734375 166.453125 C374.6240625 164.98875 374.9746875 163.524375 375.3359375 162.015625 C377.95295616 153.40989387 383.25820096 147.32894729 390.890625 142.671875 C400.52790895 137.74264124 409.54919666 137.22522009 419.8984375 140.078125 C431.37395139 143.94824543 436.56799811 150.5363048 442.1484375 160.953125 C444.74371471 168.67679431 444.811222 179.91964885 441.6484375 187.515625 C440.52734375 189.5390625 440.52734375 189.5390625 439.2734375 191.453125 C438.84933594 192.14664063 438.42523438 192.84015625 437.98828125 193.5546875 C434.35194342 198.96361341 429.93924345 202.31739446 424.2734375 205.453125 C423.67015625 205.79472656 423.066875 206.13632813 422.4453125 206.48828125 C415.20717947 209.87132169 405.98525555 209.57257707 398.36328125 207.76171875 C389.46343452 204.47414013 382.00621463 198.74595572 377.2734375 190.453125 C376.2834375 187.813125 375.2934375 185.173125 374.2734375 182.453125 C364.3734375 181.958125 364.3734375 181.958125 354.2734375 181.453125 C354.2734375 223.033125 354.2734375 264.613125 354.2734375 307.453125 C360.8734375 307.123125 367.4734375 306.793125 374.2734375 306.453125 C374.7684375 304.98875 375.2634375 303.524375 375.7734375 302.015625 C379.5382744 292.68939746 386.07300571 286.38939221 395.2734375 282.453125 C403.53893052 279.21332649 413.34466902 278.96509487 421.7109375 282.078125 C431.29685901 286.64889552 438.28757784 293.32687328 442.4453125 303.25 C445.0062659 313.15557445 444.38598711 324.52725457 439.2734375 333.453125 C438.93441406 334.08347656 438.59539062 334.71382813 438.24609375 335.36328125 C433.88857808 342.41904505 426.59715177 347.03021262 418.7734375 349.390625 C408.03186489 351.80107608 398.23393583 350.70092156 388.6875 344.875 C380.22484893 338.6334434 376.89596559 332.52915399 374.2734375 322.453125 C367.6734375 322.453125 361.0734375 322.453125 354.2734375 322.453125 C354.29962158 323.99581055 354.32580566 325.53849609 354.3527832 327.12792969 C354.44386278 332.8977994 354.50089653 338.66760664 354.5480957 344.43798828 C354.57310873 346.92670407 354.6071302 349.41534737 354.65063477 351.90380859 C354.71186792 355.49855524 354.73978095 359.09232364 354.76171875 362.6875 C354.78752518 363.78487488 354.8133316 364.88224976 354.83992004 366.01287842 C354.84314502 375.06636342 352.5271449 383.48214486 347.0234375 390.828125 C336.05093294 401.30187935 325.59571406 402.89903312 310.9609375 402.74609375 C309.38053797 402.74049045 307.80013319 402.73622382 306.21972656 402.73323059 C302.0834078 402.72183949 297.94741088 402.69242262 293.81121826 402.65911865 C289.58122103 402.62829326 285.35117121 402.61469874 281.12109375 402.59960938 C272.83839486 402.56754663 264.55595635 402.51642082 256.2734375 402.453125 C256.35483526 406.95383639 256.46763706 411.45324429 256.5859375 415.953125 C256.60849609 417.2215625 256.63105469 418.49 256.65429688 419.796875 C256.914142 428.86783194 257.53423539 436.71392289 264.2734375 443.453125 C269.164411 446.83566742 273.59360096 448.55876097 279.51287842 448.61134338 C280.35137833 448.6211322 281.18987823 448.63092102 282.05378723 448.64100647 C282.96512924 448.64676193 283.87647125 448.6525174 284.81542969 448.65844727 C285.78161728 448.66834686 286.74780487 448.67824646 287.74327087 448.68844604 C290.93559319 448.72002342 294.12793038 448.74480369 297.3203125 448.76953125 C299.53420396 448.79010402 301.74809152 448.81110058 303.9619751 448.83250427 C309.78819622 448.88769156 315.6144526 448.93711563 321.44073486 448.98535156 C327.38630307 449.03559095 333.33182009 449.0912643 339.27734375 449.14648438 C350.94266461 449.25402508 362.60802991 449.35547918 374.2734375 449.453125 C374.46969727 448.83969238 374.66595703 448.22625977 374.86816406 447.59423828 C375.26213379 446.38356689 375.26213379 446.38356689 375.6640625 445.1484375 C375.92219727 444.34937988 376.18033203 443.55032227 376.44628906 442.72705078 C379.40253649 434.59998805 385.9054902 428.34906325 393.5234375 424.578125 C402.61278083 420.81573288 411.87813672 420.51198736 421.2734375 423.453125 C430.28909948 427.41252551 437.4492095 434.06275415 441.7734375 442.953125 C444.74357609 451.43923525 444.75196524 462.38442427 441.8359375 470.890625 C437.23566354 480.34943392 429.98064111 486.68588894 420.2734375 490.453125 C412.11335145 493.17315368 400.30094602 492.66419568 392.546875 488.90625 C383.58010994 483.17491563 376.78079337 475.94352991 374.2734375 465.453125 C373.03030792 465.44725876 371.78717834 465.44139252 370.50637817 465.43534851 C358.76588351 465.37802637 347.02557237 465.30521509 335.28526497 465.21741009 C329.25008618 465.17276655 323.21497396 465.13349703 317.1796875 465.10668945 C311.35051699 465.08059667 305.52160349 465.04015169 299.69259262 464.98993874 C297.47360313 464.97331045 295.25456923 464.96177112 293.03552628 464.95551109 C289.91680487 464.94582615 286.79873504 464.91771394 283.68017578 464.88549805 C282.77170395 464.88693314 281.86323212 464.88836823 280.92723083 464.8898468 C269.09535301 464.71806136 259.77075216 460.76620793 251.0859375 452.828125 C237.71268309 438.95468982 241.2734375 420.78166801 241.2734375 402.453125 C211.5734375 402.453125 181.8734375 402.453125 151.2734375 402.453125 C151.2734375 412.353125 151.2734375 422.253125 151.2734375 432.453125 C147.8032652 444.02036599 143.35197652 453.8756639 132.48828125 460.03125 C124.61146713 463.72052499 118.03864698 464.60499382 109.43432617 464.65844727 C108.44848541 464.66834686 107.46264465 464.67824646 106.44692993 464.68844604 C103.19511296 464.71998117 99.94328139 464.74478693 96.69140625 464.76953125 C94.43410365 464.79010767 92.17680484 464.81110432 89.91950989 464.83250427 C83.98315507 464.88765386 78.04676588 464.93709452 72.11035156 464.98535156 C66.0507502 465.03561853 59.99119864 465.09127747 53.93164062 465.14648438 C42.04561548 465.25397895 30.15954706 465.35544324 18.2734375 465.453125 C18.00798126 466.14033127 17.74252502 466.82753754 17.46902466 467.53556824 C17.11589203 468.43672867 16.7627594 469.3378891 16.39892578 470.26635742 C16.05096954 471.15981369 15.70301331 472.05326996 15.34451294 472.97380066 C11.89994012 480.94729433 5.18323721 486.15843656 -2.5625 489.61328125 C-10.67269687 492.76074032 -21.86658246 492.9316723 -30.1640625 490.015625 C-39.62287142 485.41535104 -45.95932644 478.16032861 -49.7265625 468.453125 C-52.44659118 460.29303895 -51.93763318 448.48063352 -48.1796875 440.7265625 C-42.69413465 432.14432658 -35.97569383 425.58902977 -26.1015625 422.6796875 C-14.348457 420.10869567 -4.86252005 421.96950969 5.2734375 428.453125 C11.92948289 433.50025876 15.52994571 439.61834557 18.2734375 447.453125 C18.2734375 448.113125 18.2734375 448.773125 18.2734375 449.453125 C31.04341012 449.39184824 43.81317948 449.31469429 56.58293152 449.21741009 C62.51279332 449.17273034 68.44258679 449.13346872 74.37255859 449.10668945 C80.09798152 449.0806329 85.82314119 449.0402133 91.54840088 448.98993874 C93.72996744 448.97328603 95.91157952 448.96176184 98.09320068 448.95551109 C101.1548608 448.94585287 104.21584979 448.91777214 107.27734375 448.88549805 C108.17430466 448.88693314 109.07126556 448.88836823 109.9954071 448.8898468 C117.75508242 448.77457178 124.59793914 447.12862336 130.2734375 441.453125 C134.28464903 435.65312995 135.36888402 430.88194872 135.58984375 423.9375 C135.63173828 422.68710937 135.67363281 421.43671875 135.71679688 420.1484375 C135.75611328 418.84648437 135.79542969 417.54453125 135.8359375 416.203125 C135.87912109 414.88570313 135.92230469 413.56828125 135.96679688 412.2109375 C136.07285667 408.95843712 136.17491774 405.70586108 136.2734375 402.453125 C135.41059143 402.46422806 134.54774536 402.47533112 133.65875244 402.48677063 C125.48040182 402.58744535 117.30226281 402.66332813 109.12343216 402.71218586 C104.91974448 402.73814978 100.71657382 402.77330172 96.51318359 402.83032227 C92.44770056 402.88511952 88.38271108 402.91464452 84.3168869 402.92751122 C82.77488192 402.93666645 81.23290036 402.9545419 79.6911087 402.98177528 C68.74571819 403.16721257 58.99306154 401.94838015 49.8984375 395.203125 C40.66743163 385.53254742 37.79872938 376.20071255 37.98046875 363.078125 C37.98471359 361.9130542 37.98895844 360.7479834 37.99333191 359.54760742 C38.010041 355.84920535 38.04767989 352.15136066 38.0859375 348.453125 C38.10099433 345.93620582 38.11468098 343.41927805 38.12695312 340.90234375 C38.15991924 334.75239145 38.21164871 328.60285253 38.2734375 322.453125 C31.6734375 322.453125 25.0734375 322.453125 18.2734375 322.453125 C17.2834375 325.423125 16.2934375 328.393125 15.2734375 331.453125 C11.33414223 339.62624229 5.02342367 344.94420246 -3.2421875 348.55078125 C-13.90445223 352.1551632 -23.42545193 350.68700015 -33.7265625 346.453125 C-41.60092424 342.2269178 -47.41304659 334.4662532 -50.25390625 326.01171875 C-52.02487667 316.42506071 -52.20092799 305.80963308 -46.7265625 297.453125 C-46.30246094 296.75960938 -45.87835938 296.06609375 -45.44140625 295.3515625 C-41.80506842 289.94263659 -37.39236845 286.58885554 -31.7265625 283.453125 C-30.82164063 282.94072266 -30.82164063 282.94072266 -29.8984375 282.41796875 C-22.66030447 279.03492831 -13.43838055 279.33367293 -5.81640625 281.14453125 C3.08344048 284.43210987 10.54066037 290.16029428 15.2734375 298.453125 C16.7584375 302.413125 16.7584375 302.413125 18.2734375 306.453125 C24.8734375 306.783125 31.4734375 307.113125 38.2734375 307.453125 C38.2734375 265.873125 38.2734375 224.293125 38.2734375 181.453125 C28.3734375 181.948125 28.3734375 181.948125 18.2734375 182.453125 C17.7784375 183.9175 17.2834375 185.381875 16.7734375 186.890625 C13.0086006 196.21685254 6.47386929 202.51685779 -2.7265625 206.453125 C-10.99205552 209.69292351 -20.79779402 209.94115513 -29.1640625 206.828125 C-38.74998401 202.25735448 -45.74070284 195.57937672 -49.8984375 185.65625 C-52.4593909 175.75067555 -51.83911211 164.37899543 -46.7265625 155.453125 C-46.38753906 154.82277344 -46.04851563 154.19242188 -45.69921875 153.54296875 C-41.34170308 146.48720495 -34.05027677 141.87603738 -26.2265625 139.515625 C-16.171111 137.23865216 -6.79778523 137.82021005 2.171875 143.1875 C11.72303955 149.79393553 15.3745381 155.31524835 18.2734375 166.453125 C24.8734375 166.453125 31.4734375 166.453125 38.2734375 166.453125 C38.24725342 164.91043945 38.22106934 163.36775391 38.1940918 161.77832031 C38.10301222 156.0084506 38.04597847 150.23864336 37.9987793 144.46826172 C37.97376627 141.97954593 37.9397448 139.49090263 37.89624023 137.00244141 C37.83500708 133.40769476 37.80709405 129.81392636 37.78515625 126.21875 C37.75934982 125.12137512 37.7335434 124.02400024 37.70695496 122.89337158 C37.70372998 113.83988658 40.0197301 105.42410514 45.5234375 98.078125 C56.49594206 87.60437065 66.95116094 86.00721688 81.5859375 86.16015625 C83.16633703 86.16575955 84.74674181 86.17002618 86.32714844 86.17301941 C90.4634672 86.18441051 94.59946412 86.21382738 98.73565674 86.24713135 C102.96565397 86.27795674 107.19570379 86.29155126 111.42578125 86.30664062 C119.70848014 86.33870337 127.99091865 86.38982918 136.2734375 86.453125 C136.19203974 81.95241361 136.07923794 77.45300571 135.9609375 72.953125 C135.93837891 71.6846875 135.91582031 70.41625 135.89257812 69.109375 C135.632733 60.03841806 135.01263961 52.19232711 128.2734375 45.453125 C123.382464 42.07058258 118.95327404 40.34748903 113.03399658 40.29490662 C112.19549667 40.2851178 111.35699677 40.27532898 110.49308777 40.26524353 C109.58174576 40.25948807 108.67040375 40.2537326 107.73144531 40.24780273 C106.76525772 40.23790314 105.79907013 40.22800354 104.80360413 40.21780396 C101.61128181 40.18622658 98.41894462 40.16144631 95.2265625 40.13671875 C93.01267104 40.11614598 90.79878348 40.09514942 88.5848999 40.07374573 C82.75867878 40.01855844 76.9324224 39.96913437 71.10614014 39.92089844 C65.16057193 39.87065905 59.21505491 39.8149857 53.26953125 39.75976562 C41.60421039 39.65222492 29.93884509 39.55077082 18.2734375 39.453125 C17.97904785 40.37327393 17.97904785 40.37327393 17.67871094 41.31201172 C17.41606445 42.11912598 17.15341797 42.92624023 16.8828125 43.7578125 C16.49561035 44.95639893 16.49561035 44.95639893 16.10058594 46.17919922 C13.14433851 54.30626195 6.6413848 60.55718675 -0.9765625 64.328125 C-10.06590583 68.09051712 -19.33126172 68.39426264 -28.7265625 65.453125 C-37.74222448 61.49372449 -44.9023345 54.84349585 -49.2265625 45.953125 C-52.19670109 37.46701475 -52.20509024 26.52182573 -49.2890625 18.015625 C-44.68878854 8.55681608 -37.43376611 2.22036106 -27.7265625 -1.546875 C-19.56647645 -4.26690368 -7.75407102 -3.75794568 0 0 Z M-29.6640625 16.890625 C-30.3446875 17.73625 -31.0253125 18.581875 -31.7265625 19.453125 C-32.5928125 20.505 -32.5928125 20.505 -33.4765625 21.578125 C-36.66809353 26.36542155 -36.24083475 31.93226115 -35.7265625 37.453125 C-34.15416886 43.67895389 -30.49707943 47.08423742 -25.0859375 50.3203125 C-19.77916769 52.86826489 -15.65133033 52.93539063 -10.0390625 51.265625 C-4.15819993 49.01230481 -0.48674149 46.05938673 2.48046875 40.3671875 C5.00339768 34.27735905 4.51695948 29.48372676 2.2109375 23.4921875 C-0.60397322 17.36975668 -4.67121642 14.85397511 -10.7265625 12.453125 C-17.45022252 10.26062717 -24.35772643 12.48749507 -29.6640625 16.890625 Z M394.8125 16.9765625 C390.69018996 20.93146909 388.63904238 25.61148181 388.171875 31.33984375 C388.46638732 37.46796558 390.87989796 43.18162822 395.2734375 47.453125 C400.01211263 50.73374624 404.36896891 52.73688874 410.2734375 52.453125 C416.41802814 51.19744651 421.69979755 49.02574361 425.4609375 43.8046875 C428.74026499 38.22527614 429.07195067 32.80227852 428.2734375 26.453125 C426.21899737 20.61418988 422.62524944 16.85420445 417.3359375 13.703125 C409.057153 10.32402929 401.79558477 11.52401686 394.8125 16.9765625 Z M128.2734375 140.453125 C127.225434 142.42839426 126.2165641 144.42568518 125.2734375 146.453125 C126.31242187 146.73285156 127.35140625 147.01257813 128.421875 147.30078125 C137.02428583 149.73133644 144.48201886 152.33930822 151.2734375 158.453125 C152.79835748 161.50296496 152.50906298 164.0954619 152.2734375 167.453125 C151.1484375 169.390625 151.1484375 169.390625 149.2734375 170.453125 C144.36989622 170.93801557 142.11268855 170.0929215 138.2734375 167.078125 C130.85703667 161.63136178 124.4441419 160.34292623 115.2734375 161.453125 C108.46691097 163.61576605 102.42003272 167.59069727 98.2734375 173.453125 C94.72987667 180.48767157 92.83273097 187.14211808 94.93359375 194.88671875 C96.8934333 200.46080785 99.57497104 204.44378169 103.6875 208.6640625 C105.35353256 210.54347855 106.37911537 212.10781083 107.2734375 214.453125 C106.8984375 218.203125 106.8984375 218.203125 106.2734375 221.453125 C102.01013265 222.49719966 99.80733682 222.67792471 95.7109375 220.953125 C91.8319322 218.46073245 89.05729318 215.08335438 86.2734375 211.453125 C81.57528918 215.81472975 79.5803504 220.67267645 78.87890625 227.02734375 C78.66110954 235.00515655 79.53787204 241.36555661 83.2734375 248.453125 C86.68781741 247.14083664 89.90968359 245.65010788 93.1484375 243.953125 C100.73362005 240.14934614 109.84661832 237.01335665 118.3359375 239.265625 C120.2734375 240.453125 120.2734375 240.453125 121.2734375 242.453125 C121.53203885 246.50454619 121.57785304 247.99650169 119.2734375 251.453125 C116.078125 252.26171875 116.078125 252.26171875 112.1484375 252.890625 C103.00914983 254.50644064 95.21042698 257.37212053 89.32421875 264.96875 C83.88929311 273.51807124 80.8910706 280.71651699 82.73828125 291.0546875 C84.97302947 300.65484848 90.06982746 307.9295788 98.2734375 313.453125 C106.32609988 318.03432162 115.04586305 319.01660631 124.04296875 316.7578125 C128.41462831 315.15957137 131.80513915 313.14753647 135.3984375 310.203125 C138.21160154 307.93887102 140.01358961 307.03157495 143.6484375 306.953125 C147.2734375 307.453125 147.2734375 307.453125 149.2734375 309.453125 C149.82096097 312.68351347 150.07614614 314.37607523 149.2734375 317.453125 C143.23062397 325.4664212 132.7939556 329.5137602 123.2734375 331.453125 C123.81383165 339.83855149 125.83965888 346.58703273 132.2734375 352.453125 C139.86749452 357.42669756 146.18109336 359.30743921 155.2734375 358.453125 C162.6512046 356.49359006 169.41624247 351.79672206 173.625 345.3984375 C176.79874881 339.3477653 177.39840676 333.89848578 177.41387939 327.07891846 C177.41685052 326.345957 177.41982164 325.61299554 177.4228828 324.85782313 C177.43154008 322.40683138 177.43307552 319.95588863 177.43457031 317.50488281 C177.43920059 315.74537045 177.44422553 313.98585908 177.44961548 312.22634888 C177.46272125 307.44933388 177.46918087 302.67233293 177.47362614 297.89530277 C177.47655979 294.90900802 177.48066515 291.92271708 177.48513031 288.93642426 C177.49880041 279.58773798 177.50846947 270.23906046 177.5123322 260.89036489 C177.51681196 250.10841316 177.53435811 239.32658827 177.5633328 228.54467511 C177.58496711 220.20394801 177.59503742 211.86325656 177.59637332 203.52250171 C177.59742008 198.54399661 177.60330061 193.56561081 177.62119293 188.58713531 C177.63770387 183.90198928 177.63981445 179.21705186 177.63105392 174.53188705 C177.63028517 172.8166714 177.63460488 171.10144439 177.64451218 169.38625717 C177.7113692 157.0859652 177.09624455 146.8943531 168.2734375 137.453125 C161.89509159 131.79306129 155.56861244 129.95638443 147.08203125 130.140625 C139.78049042 130.95303566 133.0469692 134.8881269 128.2734375 140.453125 Z M221.2734375 140.453125 C216.45037592 147.52528265 215.15239102 153.28053393 215.13299561 161.82060242 C215.13002448 162.55285831 215.12705336 163.2851142 215.1239922 164.03955966 C215.11533491 166.48821745 215.11379947 168.93682618 215.11230469 171.38549805 C215.10767437 173.1433879 215.10264942 174.90127674 215.09725952 176.65916443 C215.08415318 181.43211447 215.07769389 186.20505045 215.07324886 190.97801566 C215.07031499 193.9623081 215.06620957 196.94659671 215.06174469 199.93088722 C215.04807376 209.27477013 215.0384054 218.61864429 215.0345428 227.96253651 C215.03006438 238.73598822 215.01252476 249.5093129 214.9835422 260.28272599 C214.96189889 268.61837322 214.95183709 276.95398478 214.95050168 285.2896598 C214.94945546 290.26428445 214.94358666 295.23878964 214.92568207 300.21338463 C214.90915579 304.89607146 214.90706795 309.57854959 214.91582108 314.26125526 C214.91658904 315.97443833 214.91228062 317.68763282 214.90236282 319.40078735 C214.83467693 331.82702393 215.08497295 342.14768969 224.078125 351.5390625 C230.33176905 356.99152795 237.21747541 358.82037757 245.35546875 358.734375 C252.5306233 358.04279384 258.21370815 354.39518622 263.2734375 349.453125 C267.6717703 343.71085718 269.61870058 338.70364974 269.2734375 331.453125 C268.67917969 331.30617188 268.08492188 331.15921875 267.47265625 331.0078125 C258.93213746 328.69669233 248.4822507 324.99692343 243.2734375 317.453125 C242.7562854 314.54695505 242.92898584 312.45477515 243.2734375 309.453125 C245.2734375 307.453125 245.2734375 307.453125 248.8984375 306.953125 C253.49275614 307.05228296 255.71058633 309.02492462 259.16015625 311.8515625 C266.68493659 317.55426109 275.08007782 318.53002903 284.2734375 317.453125 C293.12240753 315.51941375 300.57934865 309.77460975 305.71875 302.37109375 C310.06555893 294.20875253 311.49484858 285.57501481 309.1484375 276.578125 C305.87219295 266.62860813 300.29134599 260.66148799 291.2734375 255.453125 C286.39837299 253.22755207 281.16386751 252.78983432 275.8828125 252.11328125 C273.2734375 251.453125 273.2734375 251.453125 271.2734375 248.453125 C270.93386187 244.37821748 270.96011264 242.92311229 273.2734375 239.453125 C282.14741958 236.55707849 293.25979412 240.42456649 301.2734375 244.453125 C303.33644376 245.71408933 305.29132169 247.06564393 307.2734375 248.453125 C307.9334375 248.453125 308.5934375 248.453125 309.2734375 248.453125 C313.53741713 240.36298508 314.56256152 232.50501756 313.2734375 223.453125 C311.67833319 219.17031602 309.69513345 215.32351407 307.2734375 211.453125 C306.2215625 212.5359375 306.2215625 212.5359375 305.1484375 213.640625 C296.50974386 222.18198125 296.50974386 222.18198125 290.2734375 222.453125 C287.8984375 222.015625 287.8984375 222.015625 286.2734375 221.453125 C284.93930095 215.26758283 284.93930095 215.26758283 286.2734375 212.015625 C288.2734375 209.453125 288.2734375 209.453125 289.9296875 207.68359375 C295.50136242 201.69876496 297.79363284 196.70282345 298.7109375 188.578125 C298.34200226 181.16990541 295.63701273 174.42965174 290.5859375 169.015625 C283.71459805 162.85293197 277.3458827 160.77458153 268.12890625 161.13671875 C261.99135045 161.81680359 257.94412594 163.81312272 253.1484375 167.640625 C250.46505993 169.75991338 249.43510227 170.42567249 245.9609375 171.015625 C243.2734375 170.453125 243.2734375 170.453125 241.3984375 169.390625 C239.57711544 166.25390367 239.78419663 164.00012127 240.2734375 160.453125 C246.60944892 151.79390939 257.20133302 148.42601144 267.2734375 146.453125 C263.82680215 139.11029317 258.64023181 134.63652215 251.3984375 131.015625 C239.6161035 128.89480488 229.39220639 131.2841671 221.2734375 140.453125 Z M-31.6640625 160.453125 C-36.03672847 166.81336641 -36.53430466 171.75938092 -35.7265625 179.453125 C-33.75017998 185.67423815 -28.94705378 189.57450509 -23.4765625 192.765625 C-17.46265446 194.26910201 -11.87933014 194.54725045 -6.4140625 191.328125 C-0.5957044 187.14360887 3.0204952 182.72019033 4.2734375 175.453125 C4.15075829 167.72433483 1.3521509 162.45289703 -4.1640625 157.078125 C-13.19564403 151.35078061 -24.49383654 152.11958805 -31.6640625 160.453125 Z M393.6328125 159.8125 C389.95622772 164.24975749 387.80413085 169.93080704 388.3359375 175.703125 C390.1679915 183.03134101 393.2105799 187.12437506 399.2734375 191.453125 C403.80780463 194.15718978 408.12513651 194.06564876 413.2734375 193.453125 C419.47026278 191.63117109 423.71370009 187.76193754 427.2734375 182.453125 C429.10579507 176.9560523 429.4507002 170.48665255 427.33203125 165.02734375 C424.31799649 160.01025141 420.8174853 156.55923274 415.3984375 154.203125 C407.09133504 152.20942041 400.07074815 154.06681549 393.6328125 159.8125 Z M-32.6640625 303.578125 C-36.60439073 309.07070374 -36.46512591 314.90563588 -35.7265625 321.453125 C-33.72819793 326.60243785 -30.39224801 330.49439761 -25.7265625 333.453125 C-20.595183 335.68415956 -15.8948211 336.41287287 -10.45703125 334.765625 C-3.72774787 332.08730326 0.21210714 328.26352001 3.1484375 321.578125 C4.98449582 316.11167864 4.09415255 311.73288902 2.1484375 306.328125 C-0.9932686 301.51084231 -5.35783943 297.63448001 -10.7265625 295.453125 C-20.1195139 294.06751881 -26.46774488 296.51679438 -32.6640625 303.578125 Z M392.3984375 303.328125 C388.8885712 308.48969309 387.63807779 313.16241615 388.66796875 319.40234375 C390.40856369 325.29790727 394.09851466 330.17146661 399.2734375 333.453125 C404.404817 335.68415956 409.1051789 336.41287287 414.54296875 334.765625 C420.72935394 332.30338214 423.92291634 329.3319002 427.37890625 323.62890625 C429.40217697 318.70767572 429.18518303 312.32305126 427.5859375 307.2890625 C424.72009992 301.86785308 419.90290319 297.79531145 414.2734375 295.453125 C404.96854893 294.08050945 398.703321 296.51005331 392.3984375 303.328125 Z M-31.7265625 443.453125 C-35.99460939 449.37784798 -36.62587129 455.30252338 -35.7265625 462.453125 C-33.67212237 468.29206012 -30.07837444 472.05204555 -24.7890625 475.203125 C-17.65354595 478.11558074 -12.74676338 477.28707544 -5.7265625 474.453125 C-1.30278927 471.76039347 1.30330092 468.20862708 3.2734375 463.453125 C4.8296364 457.0208362 4.04033871 452.44616414 1.2734375 446.453125 C-2.3239961 440.67153529 -7.16506199 438.07284286 -13.6015625 436.515625 C-20.31807843 435.9678703 -27.11651561 438.57964686 -31.7265625 443.453125 Z M393.2734375 443.453125 C389.99281626 448.19180013 387.98967376 452.54865641 388.2734375 458.453125 C389.37980196 463.867056 391.20473167 468.60434922 395.2734375 472.453125 C400.38345018 475.68107734 405.55825077 478.13134164 411.69140625 477.01171875 C417.18541159 475.59155489 420.62661917 473.9840205 424.2734375 469.453125 C424.8509375 468.751875 425.4284375 468.050625 426.0234375 467.328125 C429.21496853 462.54082845 428.78770975 456.97398885 428.2734375 451.453125 C426.70104386 445.22729611 423.04395443 441.82201258 417.6328125 438.5859375 C409.19730852 434.5357783 399.78250121 436.75808804 393.2734375 443.453125 Z " fill="#A2D1FC" transform="translate(59.7265625,11.546875)"/>
<path d="M0 0 C8.96676506 5.73133437 15.76608163 12.96272009 18.2734375 23.453125 C20.13813187 23.46192436 20.13813187 23.46192436 22.04049683 23.47090149 C33.78099149 23.52822363 45.52130263 23.60103491 57.26161003 23.68883991 C63.29678882 23.73348345 69.33190104 23.77275297 75.3671875 23.79956055 C81.19635801 23.82565333 87.02527151 23.86609831 92.85428238 23.91631126 C95.07327187 23.93293955 97.29230577 23.94447888 99.51134872 23.95073891 C102.63007013 23.96042385 105.74813996 23.98853606 108.86669922 24.02075195 C109.77517105 24.01931686 110.68364288 24.01788177 111.61964417 24.0164032 C123.45152199 24.18818864 132.77612284 28.14004207 141.4609375 36.078125 C154.83419191 49.95156018 151.2734375 68.12458199 151.2734375 86.453125 C180.9734375 86.453125 210.6734375 86.453125 241.2734375 86.453125 C241.2734375 76.553125 241.2734375 66.653125 241.2734375 56.453125 C244.7436098 44.88588401 249.19489848 35.0305861 260.05859375 28.875 C267.93540787 25.18572501 274.50822802 24.30125618 283.11254883 24.24780273 C284.09838959 24.23790314 285.08423035 24.22800354 286.09994507 24.21780396 C289.35176204 24.18626883 292.60359361 24.16146307 295.85546875 24.13671875 C298.11277135 24.11614233 300.37007016 24.09514568 302.62736511 24.07374573 C308.56371993 24.01859614 314.50010912 23.96915548 320.43652344 23.92089844 C326.4961248 23.87063147 332.55567636 23.81497253 338.61523438 23.75976562 C350.50125952 23.65227105 362.38732794 23.55080676 374.2734375 23.453125 C374.53889374 22.76591873 374.80434998 22.07871246 375.07785034 21.37068176 C375.43098297 20.46952133 375.7841156 19.5683609 376.14794922 18.63989258 C376.66988358 17.29970818 376.66988358 17.29970818 377.20236206 15.93244934 C380.64693488 7.95895567 387.36363779 2.74781344 395.109375 -0.70703125 C403.21957187 -3.85449032 414.41345746 -4.0254223 422.7109375 -1.109375 C432.16974642 3.49089896 438.50620144 10.74592139 442.2734375 20.453125 C444.99346618 28.61321105 444.48450818 40.42561648 440.7265625 48.1796875 C435.24100965 56.76192342 428.52256883 63.31722023 418.6484375 66.2265625 C406.895332 68.79755433 397.40939505 66.93674031 387.2734375 60.453125 C380.61739211 55.40599124 377.01692929 49.28790443 374.2734375 41.453125 C374.2734375 40.793125 374.2734375 40.133125 374.2734375 39.453125 C361.50346488 39.51440176 348.73369552 39.59155571 335.96394348 39.68883991 C330.03408168 39.73351966 324.10428821 39.77278128 318.17431641 39.79956055 C312.44889348 39.8256171 306.72373381 39.8660367 300.99847412 39.91631126 C298.81690756 39.93296397 296.63529548 39.94448816 294.45367432 39.95073891 C291.3920142 39.96039713 288.33102521 39.98847786 285.26953125 40.02075195 C284.37257034 40.01931686 283.47560944 40.01788177 282.5514679 40.0164032 C274.79179258 40.13167822 267.94893586 41.77762664 262.2734375 47.453125 C258.26222597 53.25312005 257.17799098 58.02430128 256.95703125 64.96875 C256.91513672 66.21914062 256.87324219 67.46953125 256.83007812 68.7578125 C256.77110352 70.71074219 256.77110352 70.71074219 256.7109375 72.703125 C256.66775391 74.02054687 256.62457031 75.33796875 256.58007812 76.6953125 C256.47401833 79.94781288 256.37195726 83.20038892 256.2734375 86.453125 C257.13628357 86.44202194 257.99912964 86.43091888 258.88812256 86.41947937 C267.06647318 86.31880465 275.24461219 86.24292187 283.42344284 86.19406414 C287.62713052 86.16810022 291.83030118 86.13294828 296.03369141 86.07592773 C300.09917444 86.02113048 304.16416392 85.99160548 308.2299881 85.97873878 C309.77199308 85.96958355 311.31397464 85.9517081 312.8557663 85.92447472 C323.80115681 85.73903743 333.55381346 86.95786985 342.6484375 93.703125 C351.87944337 103.37370258 354.74814562 112.70553745 354.56640625 125.828125 C354.56216141 126.9931958 354.55791656 128.1582666 354.55354309 129.35864258 C354.536834 133.05704465 354.49919511 136.75488934 354.4609375 140.453125 C354.44588067 142.97004418 354.43219402 145.48697195 354.41992188 148.00390625 C354.38695576 154.15385855 354.33522629 160.30339747 354.2734375 166.453125 C360.8734375 166.453125 367.4734375 166.453125 374.2734375 166.453125 C374.6240625 164.98875 374.9746875 163.524375 375.3359375 162.015625 C377.95295616 153.40989387 383.25820096 147.32894729 390.890625 142.671875 C400.52790895 137.74264124 409.54919666 137.22522009 419.8984375 140.078125 C431.37395139 143.94824543 436.56799811 150.5363048 442.1484375 160.953125 C444.74371471 168.67679431 444.811222 179.91964885 441.6484375 187.515625 C440.52734375 189.5390625 440.52734375 189.5390625 439.2734375 191.453125 C438.84933594 192.14664063 438.42523438 192.84015625 437.98828125 193.5546875 C434.35194342 198.96361341 429.93924345 202.31739446 424.2734375 205.453125 C423.67015625 205.79472656 423.066875 206.13632813 422.4453125 206.48828125 C415.20717947 209.87132169 405.98525555 209.57257707 398.36328125 207.76171875 C389.46343452 204.47414013 382.00621463 198.74595572 377.2734375 190.453125 C376.2834375 187.813125 375.2934375 185.173125 374.2734375 182.453125 C364.3734375 181.958125 364.3734375 181.958125 354.2734375 181.453125 C354.2734375 223.033125 354.2734375 264.613125 354.2734375 307.453125 C360.8734375 307.123125 367.4734375 306.793125 374.2734375 306.453125 C374.7684375 304.98875 375.2634375 303.524375 375.7734375 302.015625 C379.5382744 292.68939746 386.07300571 286.38939221 395.2734375 282.453125 C403.53893052 279.21332649 413.34466902 278.96509487 421.7109375 282.078125 C431.29685901 286.64889552 438.28757784 293.32687328 442.4453125 303.25 C445.0062659 313.15557445 444.38598711 324.52725457 439.2734375 333.453125 C438.93441406 334.08347656 438.59539062 334.71382813 438.24609375 335.36328125 C433.88857808 342.41904505 426.59715177 347.03021262 418.7734375 349.390625 C408.03186489 351.80107608 398.23393583 350.70092156 388.6875 344.875 C380.22484893 338.6334434 376.89596559 332.52915399 374.2734375 322.453125 C367.6734375 322.453125 361.0734375 322.453125 354.2734375 322.453125 C354.29962158 323.99581055 354.32580566 325.53849609 354.3527832 327.12792969 C354.44386278 332.8977994 354.50089653 338.66760664 354.5480957 344.43798828 C354.57310873 346.92670407 354.6071302 349.41534737 354.65063477 351.90380859 C354.71186792 355.49855524 354.73978095 359.09232364 354.76171875 362.6875 C354.78752518 363.78487488 354.8133316 364.88224976 354.83992004 366.01287842 C354.84314502 375.06636342 352.5271449 383.48214486 347.0234375 390.828125 C336.05093294 401.30187935 325.59571406 402.89903312 310.9609375 402.74609375 C309.38053797 402.74049045 307.80013319 402.73622382 306.21972656 402.73323059 C302.0834078 402.72183949 297.94741088 402.69242262 293.81121826 402.65911865 C289.58122103 402.62829326 285.35117121 402.61469874 281.12109375 402.59960938 C272.83839486 402.56754663 264.55595635 402.51642082 256.2734375 402.453125 C256.35483526 406.95383639 256.46763706 411.45324429 256.5859375 415.953125 C256.60849609 417.2215625 256.63105469 418.49 256.65429688 419.796875 C256.914142 428.86783194 257.53423539 436.71392289 264.2734375 443.453125 C269.164411 446.83566742 273.59360096 448.55876097 279.51287842 448.61134338 C280.35137833 448.6211322 281.18987823 448.63092102 282.05378723 448.64100647 C282.96512924 448.64676193 283.87647125 448.6525174 284.81542969 448.65844727 C285.78161728 448.66834686 286.74780487 448.67824646 287.74327087 448.68844604 C290.93559319 448.72002342 294.12793038 448.74480369 297.3203125 448.76953125 C299.53420396 448.79010402 301.74809152 448.81110058 303.9619751 448.83250427 C309.78819622 448.88769156 315.6144526 448.93711563 321.44073486 448.98535156 C327.38630307 449.03559095 333.33182009 449.0912643 339.27734375 449.14648438 C350.94266461 449.25402508 362.60802991 449.35547918 374.2734375 449.453125 C374.46969727 448.83969238 374.66595703 448.22625977 374.86816406 447.59423828 C375.26213379 446.38356689 375.26213379 446.38356689 375.6640625 445.1484375 C375.92219727 444.34937988 376.18033203 443.55032227 376.44628906 442.72705078 C379.40253649 434.59998805 385.9054902 428.34906325 393.5234375 424.578125 C402.61278083 420.81573288 411.87813672 420.51198736 421.2734375 423.453125 C430.28909948 427.41252551 437.4492095 434.06275415 441.7734375 442.953125 C444.74357609 451.43923525 444.75196524 462.38442427 441.8359375 470.890625 C437.23566354 480.34943392 429.98064111 486.68588894 420.2734375 490.453125 C412.11335145 493.17315368 400.30094602 492.66419568 392.546875 488.90625 C383.58010994 483.17491563 376.78079337 475.94352991 374.2734375 465.453125 C373.03030792 465.44725876 371.78717834 465.44139252 370.50637817 465.43534851 C358.76588351 465.37802637 347.02557237 465.30521509 335.28526497 465.21741009 C329.25008618 465.17276655 323.21497396 465.13349703 317.1796875 465.10668945 C311.35051699 465.08059667 305.52160349 465.04015169 299.69259262 464.98993874 C297.47360313 464.97331045 295.25456923 464.96177112 293.03552628 464.95551109 C289.91680487 464.94582615 286.79873504 464.91771394 283.68017578 464.88549805 C282.77170395 464.88693314 281.86323212 464.88836823 280.92723083 464.8898468 C269.09535301 464.71806136 259.77075216 460.76620793 251.0859375 452.828125 C237.71268309 438.95468982 241.2734375 420.78166801 241.2734375 402.453125 C211.5734375 402.453125 181.8734375 402.453125 151.2734375 402.453125 C151.2734375 412.353125 151.2734375 422.253125 151.2734375 432.453125 C147.8032652 444.02036599 143.35197652 453.8756639 132.48828125 460.03125 C124.61146713 463.72052499 118.03864698 464.60499382 109.43432617 464.65844727 C108.44848541 464.66834686 107.46264465 464.67824646 106.44692993 464.68844604 C103.19511296 464.71998117 99.94328139 464.74478693 96.69140625 464.76953125 C94.43410365 464.79010767 92.17680484 464.81110432 89.91950989 464.83250427 C83.98315507 464.88765386 78.04676588 464.93709452 72.11035156 464.98535156 C66.0507502 465.03561853 59.99119864 465.09127747 53.93164062 465.14648438 C42.04561548 465.25397895 30.15954706 465.35544324 18.2734375 465.453125 C18.00798126 466.14033127 17.74252502 466.82753754 17.46902466 467.53556824 C17.11589203 468.43672867 16.7627594 469.3378891 16.39892578 470.26635742 C16.05096954 471.15981369 15.70301331 472.05326996 15.34451294 472.97380066 C11.89994012 480.94729433 5.18323721 486.15843656 -2.5625 489.61328125 C-10.67269687 492.76074032 -21.86658246 492.9316723 -30.1640625 490.015625 C-39.62287142 485.41535104 -45.95932644 478.16032861 -49.7265625 468.453125 C-52.44659118 460.29303895 -51.93763318 448.48063352 -48.1796875 440.7265625 C-42.69413465 432.14432658 -35.97569383 425.58902977 -26.1015625 422.6796875 C-14.348457 420.10869567 -4.86252005 421.96950969 5.2734375 428.453125 C11.92948289 433.50025876 15.52994571 439.61834557 18.2734375 447.453125 C18.2734375 448.113125 18.2734375 448.773125 18.2734375 449.453125 C31.04341012 449.39184824 43.81317948 449.31469429 56.58293152 449.21741009 C62.51279332 449.17273034 68.44258679 449.13346872 74.37255859 449.10668945 C80.09798152 449.0806329 85.82314119 449.0402133 91.54840088 448.98993874 C93.72996744 448.97328603 95.91157952 448.96176184 98.09320068 448.95551109 C101.1548608 448.94585287 104.21584979 448.91777214 107.27734375 448.88549805 C108.17430466 448.88693314 109.07126556 448.88836823 109.9954071 448.8898468 C117.75508242 448.77457178 124.59793914 447.12862336 130.2734375 441.453125 C134.28464903 435.65312995 135.36888402 430.88194872 135.58984375 423.9375 C135.63173828 422.68710937 135.67363281 421.43671875 135.71679688 420.1484375 C135.75611328 418.84648437 135.79542969 417.54453125 135.8359375 416.203125 C135.87912109 414.88570313 135.92230469 413.56828125 135.96679688 412.2109375 C136.07285667 408.95843712 136.17491774 405.70586108 136.2734375 402.453125 C135.41059143 402.46422806 134.54774536 402.47533112 133.65875244 402.48677063 C125.48040182 402.58744535 117.30226281 402.66332813 109.12343216 402.71218586 C104.91974448 402.73814978 100.71657382 402.77330172 96.51318359 402.83032227 C92.44770056 402.88511952 88.38271108 402.91464452 84.3168869 402.92751122 C82.77488192 402.93666645 81.23290036 402.9545419 79.6911087 402.98177528 C68.74571819 403.16721257 58.99306154 401.94838015 49.8984375 395.203125 C40.66743163 385.53254742 37.79872938 376.20071255 37.98046875 363.078125 C37.98471359 361.9130542 37.98895844 360.7479834 37.99333191 359.54760742 C38.010041 355.84920535 38.04767989 352.15136066 38.0859375 348.453125 C38.10099433 345.93620582 38.11468098 343.41927805 38.12695312 340.90234375 C38.15991924 334.75239145 38.21164871 328.60285253 38.2734375 322.453125 C31.6734375 322.453125 25.0734375 322.453125 18.2734375 322.453125 C17.2834375 325.423125 16.2934375 328.393125 15.2734375 331.453125 C11.33414223 339.62624229 5.02342367 344.94420246 -3.2421875 348.55078125 C-13.90445223 352.1551632 -23.42545193 350.68700015 -33.7265625 346.453125 C-41.60092424 342.2269178 -47.41304659 334.4662532 -50.25390625 326.01171875 C-52.02487667 316.42506071 -52.20092799 305.80963308 -46.7265625 297.453125 C-46.30246094 296.75960938 -45.87835938 296.06609375 -45.44140625 295.3515625 C-41.80506842 289.94263659 -37.39236845 286.58885554 -31.7265625 283.453125 C-30.82164063 282.94072266 -30.82164063 282.94072266 -29.8984375 282.41796875 C-22.66030447 279.03492831 -13.43838055 279.33367293 -5.81640625 281.14453125 C3.08344048 284.43210987 10.54066037 290.16029428 15.2734375 298.453125 C16.7584375 302.413125 16.7584375 302.413125 18.2734375 306.453125 C24.8734375 306.783125 31.4734375 307.113125 38.2734375 307.453125 C38.2734375 265.873125 38.2734375 224.293125 38.2734375 181.453125 C28.3734375 181.948125 28.3734375 181.948125 18.2734375 182.453125 C17.7784375 183.9175 17.2834375 185.381875 16.7734375 186.890625 C13.0086006 196.21685254 6.47386929 202.51685779 -2.7265625 206.453125 C-10.99205552 209.69292351 -20.79779402 209.94115513 -29.1640625 206.828125 C-38.74998401 202.25735448 -45.74070284 195.57937672 -49.8984375 185.65625 C-52.4593909 175.75067555 -51.83911211 164.37899543 -46.7265625 155.453125 C-46.38753906 154.82277344 -46.04851563 154.19242188 -45.69921875 153.54296875 C-41.34170308 146.48720495 -34.05027677 141.87603738 -26.2265625 139.515625 C-16.171111 137.23865216 -6.79778523 137.82021005 2.171875 143.1875 C11.72303955 149.79393553 15.3745381 155.31524835 18.2734375 166.453125 C24.8734375 166.453125 31.4734375 166.453125 38.2734375 166.453125 C38.24725342 164.91043945 38.22106934 163.36775391 38.1940918 161.77832031 C38.10301222 156.0084506 38.04597847 150.23864336 37.9987793 144.46826172 C37.97376627 141.97954593 37.9397448 139.49090263 37.89624023 137.00244141 C37.83500708 133.40769476 37.80709405 129.81392636 37.78515625 126.21875 C37.75934982 125.12137512 37.7335434 124.02400024 37.70695496 122.89337158 C37.70372998 113.83988658 40.0197301 105.42410514 45.5234375 98.078125 C56.49594206 87.60437065 66.95116094 86.00721688 81.5859375 86.16015625 C83.16633703 86.16575955 84.74674181 86.17002618 86.32714844 86.17301941 C90.4634672 86.18441051 94.59946412 86.21382738 98.73565674 86.24713135 C102.96565397 86.27795674 107.19570379 86.29155126 111.42578125 86.30664062 C119.70848014 86.33870337 127.99091865 86.38982918 136.2734375 86.453125 C136.19203974 81.95241361 136.07923794 77.45300571 135.9609375 72.953125 C135.93837891 71.6846875 135.91582031 70.41625 135.89257812 69.109375 C135.632733 60.03841806 135.01263961 52.19232711 128.2734375 45.453125 C123.382464 42.07058258 118.95327404 40.34748903 113.03399658 40.29490662 C112.19549667 40.2851178 111.35699677 40.27532898 110.49308777 40.26524353 C109.58174576 40.25948807 108.67040375 40.2537326 107.73144531 40.24780273 C106.76525772 40.23790314 105.79907013 40.22800354 104.80360413 40.21780396 C101.61128181 40.18622658 98.41894462 40.16144631 95.2265625 40.13671875 C93.01267104 40.11614598 90.79878348 40.09514942 88.5848999 40.07374573 C82.75867878 40.01855844 76.9324224 39.96913437 71.10614014 39.92089844 C65.16057193 39.87065905 59.21505491 39.8149857 53.26953125 39.75976562 C41.60421039 39.65222492 29.93884509 39.55077082 18.2734375 39.453125 C17.97904785 40.37327393 17.97904785 40.37327393 17.67871094 41.31201172 C17.41606445 42.11912598 17.15341797 42.92624023 16.8828125 43.7578125 C16.49561035 44.95639893 16.49561035 44.95639893 16.10058594 46.17919922 C13.14433851 54.30626195 6.6413848 60.55718675 -0.9765625 64.328125 C-10.06590583 68.09051712 -19.33126172 68.39426264 -28.7265625 65.453125 C-37.74222448 61.49372449 -44.9023345 54.84349585 -49.2265625 45.953125 C-52.19670109 37.46701475 -52.20509024 26.52182573 -49.2890625 18.015625 C-44.68878854 8.55681608 -37.43376611 2.22036106 -27.7265625 -1.546875 C-19.56647645 -4.26690368 -7.75407102 -3.75794568 0 0 Z M-29.6640625 16.890625 C-30.3446875 17.73625 -31.0253125 18.581875 -31.7265625 19.453125 C-32.5928125 20.505 -32.5928125 20.505 -33.4765625 21.578125 C-36.66809353 26.36542155 -36.24083475 31.93226115 -35.7265625 37.453125 C-34.15416886 43.67895389 -30.49707943 47.08423742 -25.0859375 50.3203125 C-19.77916769 52.86826489 -15.65133033 52.93539063 -10.0390625 51.265625 C-4.15819993 49.01230481 -0.48674149 46.05938673 2.48046875 40.3671875 C5.00339768 34.27735905 4.51695948 29.48372676 2.2109375 23.4921875 C-0.60397322 17.36975668 -4.67121642 14.85397511 -10.7265625 12.453125 C-17.45022252 10.26062717 -24.35772643 12.48749507 -29.6640625 16.890625 Z M394.8125 16.9765625 C390.69018996 20.93146909 388.63904238 25.61148181 388.171875 31.33984375 C388.46638732 37.46796558 390.87989796 43.18162822 395.2734375 47.453125 C400.01211263 50.73374624 404.36896891 52.73688874 410.2734375 52.453125 C416.41802814 51.19744651 421.69979755 49.02574361 425.4609375 43.8046875 C428.74026499 38.22527614 429.07195067 32.80227852 428.2734375 26.453125 C426.21899737 20.61418988 422.62524944 16.85420445 417.3359375 13.703125 C409.057153 10.32402929 401.79558477 11.52401686 394.8125 16.9765625 Z M56.8984375 107.890625 C56.43695313 108.44621094 55.97546875 109.00179687 55.5 109.57421875 C51.87562014 115.12621464 51.98327837 120.23447664 51.99928284 126.66789246 C51.99404616 127.70641477 51.98880948 128.74493709 51.98341411 129.81492978 C51.96839449 133.30007988 51.96770852 136.78508341 51.96704102 140.27026367 C51.95942079 142.76706185 51.95099353 145.26385768 51.94181824 147.76065063 C51.9198512 154.54801034 51.91104936 161.335311 51.90599179 168.12269759 C51.9027324 172.3633157 51.89620841 176.60392475 51.8889904 180.84453773 C51.86942589 192.59278031 51.8530211 204.34101449 51.85011387 216.08927441 C51.8499263 216.84082405 51.84973873 217.59237369 51.84954548 218.36669757 C51.84917923 219.89018333 51.84881553 221.41366909 51.84845436 222.93715485 C51.84827155 223.69338447 51.84808874 224.44961409 51.84790039 225.22875977 C51.84771984 225.98591592 51.84753929 226.74307208 51.84735327 227.52317236 C51.84381312 239.78641168 51.81680007 252.04947524 51.7794025 264.31265362 C51.74128675 276.91250787 51.72195615 289.51227499 51.72165436 302.11218816 C51.72107048 309.18277681 51.71262392 316.25315584 51.68365669 323.32369041 C51.6565266 329.97627011 51.65526578 336.6285077 51.67131233 343.281147 C51.67312767 345.71998435 51.66642861 348.15884549 51.65049362 350.59763145 C51.63003049 353.93339029 51.64058809 357.26769825 51.65870667 360.60343933 C51.6455067 361.56309213 51.63230673 362.52274494 51.61870676 363.51147813 C51.7034083 370.363317 53.3777387 375.76405947 57.2734375 381.453125 C61.93466194 385.83146265 66.06897163 388.5703304 72.59707737 388.59013939 C73.4851494 388.59521393 74.37322143 388.60028847 75.28820473 388.60551679 C76.26483682 388.60601455 77.24146892 388.60651231 78.24769592 388.60702515 C79.28450939 388.6114074 80.32132286 388.61578965 81.38955492 388.6203047 C84.88088021 388.63371169 88.37218025 388.63987588 91.86352539 388.64599609 C94.36002721 388.65389563 96.85652788 388.66216449 99.35302734 388.67077637 C106.85800421 388.69475011 114.36297692 388.7099281 121.86797896 388.72283643 C123.98840139 388.72654903 126.10882317 388.73052222 128.22924495 388.7345891 C141.40126471 388.75982922 154.57328553 388.78187893 167.74532413 388.79431725 C170.79628058 388.79724688 173.84723699 388.80020854 176.89819336 388.80322266 C178.0356241 388.80434173 178.0356241 388.80434173 179.19603323 388.80548342 C191.47232481 388.81812961 203.74847131 388.8513427 216.02469511 388.89302449 C228.6335177 388.93548388 241.24226611 388.959017 253.85115999 388.96423781 C260.92849648 388.96764769 268.00560637 388.9793524 275.08287239 389.01234055 C281.74366556 389.04333673 288.40399545 389.0487355 295.06487274 389.03695679 C297.50693927 389.03673598 299.94902407 389.04504661 302.39102745 389.06261063 C305.73125627 389.0853233 309.07005654 389.07699588 312.41029358 389.06112671 C313.37131062 389.0750088 314.33232766 389.08889088 315.32246643 389.10319364 C323.23389998 389.01090986 329.97201029 386.66990023 335.7109375 381.078125 C339.84917943 374.12587855 340.71088906 368.98706613 340.66111755 360.98439026 C340.66650309 359.94274796 340.67188863 358.90110566 340.67743737 357.82789844 C340.69172295 354.34421054 340.68461154 350.86090229 340.67749023 347.37719727 C340.68319345 344.87685847 340.69015752 342.37652227 340.69828796 339.87619019 C340.71437555 333.79371312 340.716319 327.71138473 340.71107506 321.62890095 C340.70702955 316.68395023 340.70848143 311.73903 340.71382332 306.79408073 C340.71457174 306.08962183 340.71532016 305.38516293 340.71609126 304.65935678 C340.71762278 303.22813837 340.71916113 301.79691995 340.72070623 300.36570155 C340.73442603 286.95183879 340.72899719 273.5380344 340.71752102 260.12417298 C340.70758855 247.85973053 340.72053042 235.59543895 340.74445521 223.33101977 C340.76885312 210.72884554 340.77845243 198.12674155 340.77180248 185.52454418 C340.76831187 178.45297447 340.77053186 171.38152077 340.78805351 164.30996895 C340.80432499 157.6606687 340.79958309 151.01160968 340.78074837 144.36230087 C340.7770585 141.92263151 340.78018246 139.48294086 340.79063416 137.04329109 C340.80381772 133.71147541 340.79231867 130.38061787 340.77464294 127.04884338 C340.78424795 126.08472914 340.79385296 125.12061489 340.80374902 124.12728506 C340.72012139 116.45942436 338.93062632 111.11031382 333.4609375 105.640625 C326.44680201 100.8270026 321.14538125 100.01357128 312.80470276 100.06544495 C311.76306046 100.06005941 310.72141816 100.05467387 309.64821094 100.04912513 C306.16452304 100.03483955 302.68121479 100.04195096 299.19750977 100.04907227 C296.69717097 100.04336905 294.19683477 100.03640498 291.69650269 100.02827454 C285.61402562 100.01218695 279.53169723 100.0102435 273.44921345 100.01548744 C268.50426273 100.01953295 263.5593425 100.01808107 258.61439323 100.01273918 C257.90993433 100.01199076 257.20547543 100.01124234 256.47966928 100.01047124 C255.04845087 100.00893972 253.61723245 100.00740137 252.18601405 100.00585627 C238.77215129 99.99213647 225.3583469 99.99756531 211.94448548 100.00904148 C199.68004303 100.01897395 187.41575145 100.00603208 175.15133227 99.98210729 C162.54915804 99.95770938 149.94705405 99.94811007 137.34485668 99.95476002 C130.27328697 99.95825063 123.20183327 99.95603064 116.13028145 99.93850899 C109.4809812 99.92223751 102.83192218 99.92697941 96.18261337 99.94581413 C93.74294401 99.949504 91.30325336 99.94638004 88.86360359 99.93592834 C85.53178791 99.92274478 82.20093037 99.93424383 78.86915588 99.95191956 C77.90504164 99.94231455 76.94092739 99.93270954 75.94759756 99.92281348 C68.46765852 100.00439158 61.75427866 101.81380644 56.8984375 107.890625 Z M-31.6640625 160.453125 C-36.03672847 166.81336641 -36.53430466 171.75938092 -35.7265625 179.453125 C-33.75017998 185.67423815 -28.94705378 189.57450509 -23.4765625 192.765625 C-17.46265446 194.26910201 -11.87933014 194.54725045 -6.4140625 191.328125 C-0.5957044 187.14360887 3.0204952 182.72019033 4.2734375 175.453125 C4.15075829 167.72433483 1.3521509 162.45289703 -4.1640625 157.078125 C-13.19564403 151.35078061 -24.49383654 152.11958805 -31.6640625 160.453125 Z M393.6328125 159.8125 C389.95622772 164.24975749 387.80413085 169.93080704 388.3359375 175.703125 C390.1679915 183.03134101 393.2105799 187.12437506 399.2734375 191.453125 C403.80780463 194.15718978 408.12513651 194.06564876 413.2734375 193.453125 C419.47026278 191.63117109 423.71370009 187.76193754 427.2734375 182.453125 C429.10579507 176.9560523 429.4507002 170.48665255 427.33203125 165.02734375 C424.31799649 160.01025141 420.8174853 156.55923274 415.3984375 154.203125 C407.09133504 152.20942041 400.07074815 154.06681549 393.6328125 159.8125 Z M-32.6640625 303.578125 C-36.60439073 309.07070374 -36.46512591 314.90563588 -35.7265625 321.453125 C-33.72819793 326.60243785 -30.39224801 330.49439761 -25.7265625 333.453125 C-20.595183 335.68415956 -15.8948211 336.41287287 -10.45703125 334.765625 C-3.72774787 332.08730326 0.21210714 328.26352001 3.1484375 321.578125 C4.98449582 316.11167864 4.09415255 311.73288902 2.1484375 306.328125 C-0.9932686 301.51084231 -5.35783943 297.63448001 -10.7265625 295.453125 C-20.1195139 294.06751881 -26.46774488 296.51679438 -32.6640625 303.578125 Z M392.3984375 303.328125 C388.8885712 308.48969309 387.63807779 313.16241615 388.66796875 319.40234375 C390.40856369 325.29790727 394.09851466 330.17146661 399.2734375 333.453125 C404.404817 335.68415956 409.1051789 336.41287287 414.54296875 334.765625 C420.72935394 332.30338214 423.92291634 329.3319002 427.37890625 323.62890625 C429.40217697 318.70767572 429.18518303 312.32305126 427.5859375 307.2890625 C424.72009992 301.86785308 419.90290319 297.79531145 414.2734375 295.453125 C404.96854893 294.08050945 398.703321 296.51005331 392.3984375 303.328125 Z M-31.7265625 443.453125 C-35.99460939 449.37784798 -36.62587129 455.30252338 -35.7265625 462.453125 C-33.67212237 468.29206012 -30.07837444 472.05204555 -24.7890625 475.203125 C-17.65354595 478.11558074 -12.74676338 477.28707544 -5.7265625 474.453125 C-1.30278927 471.76039347 1.30330092 468.20862708 3.2734375 463.453125 C4.8296364 457.0208362 4.04033871 452.44616414 1.2734375 446.453125 C-2.3239961 440.67153529 -7.16506199 438.07284286 -13.6015625 436.515625 C-20.31807843 435.9678703 -27.11651561 438.57964686 -31.7265625 443.453125 Z M393.2734375 443.453125 C389.99281626 448.19180013 387.98967376 452.54865641 388.2734375 458.453125 C389.37980196 463.867056 391.20473167 468.60434922 395.2734375 472.453125 C400.38345018 475.68107734 405.55825077 478.13134164 411.69140625 477.01171875 C417.18541159 475.59155489 420.62661917 473.9840205 424.2734375 469.453125 C424.8509375 468.751875 425.4284375 468.050625 426.0234375 467.328125 C429.21496853 462.54082845 428.78770975 456.97398885 428.2734375 451.453125 C426.70104386 445.22729611 423.04395443 441.82201258 417.6328125 438.5859375 C409.19730852 434.5357783 399.78250121 436.75808804 393.2734375 443.453125 Z " fill="#1E4570" transform="translate(59.7265625,11.546875)"/>
<path d="M0 0 C7.33358833 5.68213141 12.13790062 14.56468399 14.609375 23.3984375 C14.79553834 26.08224098 14.88829081 28.66036453 14.87680054 31.34173584 C14.88133165 32.12384878 14.88586276 32.90596173 14.89053118 33.71177506 C14.90315538 36.32321019 14.90155609 38.93443624 14.89990234 41.54589844 C14.90588889 43.42216255 14.91269472 45.2984242 14.92025757 47.17468262 C14.93791331 52.26575868 14.94261281 57.35676749 14.94388914 62.44787121 C14.94531169 65.63100825 14.9495833 68.81412824 14.95488358 71.99726105 C14.97338341 83.10918766 14.98155436 94.22106631 14.97998047 105.33300781 C14.97877953 115.67925137 14.9998728 126.02528615 15.0314678 136.37147689 C15.05765091 145.26341027 15.06834689 154.15527555 15.06706965 163.04724717 C15.06656056 168.35387656 15.07221448 173.66032044 15.09342575 178.96691132 C15.112842 183.96073841 15.11290939 188.9542037 15.09839249 193.94804382 C15.0963074 195.775719 15.10098729 197.60341702 15.1131134 199.43105316 C15.22265028 217.09126342 15.22265028 217.09126342 10.609375 225.3984375 C10.14015625 226.28917969 9.6709375 227.17992187 9.1875 228.09765625 C3.83040063 236.11754913 -2.48721267 241.64869698 -11.390625 245.3984375 C-12.10347656 245.75679687 -12.81632812 246.11515625 -13.55078125 246.484375 C-17.59655837 247.78659212 -21.41639533 247.72746422 -25.640625 247.7109375 C-26.85298828 247.73510742 -26.85298828 247.73510742 -28.08984375 247.75976562 C-39.35085261 247.76877443 -47.97370337 243.33385498 -56.203125 235.8359375 C-57.2859375 234.629375 -57.2859375 234.629375 -58.390625 233.3984375 C-59.050625 232.6971875 -59.710625 231.9959375 -60.390625 231.2734375 C-65.82931242 223.45532434 -68.18877994 215.8851554 -68.390625 206.3984375 C-69.463125 206.3571875 -70.535625 206.3159375 -71.640625 206.2734375 C-82.16255426 204.8977789 -91.52625046 198.199402 -98.390625 190.3984375 C-106.92992345 177.94595405 -110.17671484 165.4293833 -108.390625 150.3984375 C-107.30397528 146.79223384 -106.00913282 143.52713137 -104.38671875 140.1328125 C-103.2037449 136.88543332 -103.29218679 135.64942054 -104.390625 132.3984375 C-105.51187914 130.02401696 -106.65911223 127.71308801 -107.890625 125.3984375 C-113.17007913 115.47560805 -114.22211248 104.04233228 -111.265625 93.0859375 C-108.87149367 86.31942547 -105.35265451 80.15491313 -100.078125 75.2734375 C-96.03915197 70.86823635 -96.74441429 64.97129455 -96.57421875 59.33984375 C-96.02627942 47.57663567 -90.44385359 38.94225173 -81.953125 31.0234375 C-77.97031806 27.6544193 -72.84022539 23.3984375 -67.390625 23.3984375 C-67.205 22.50705078 -67.205 22.50705078 -67.015625 21.59765625 C-64.33194597 10.81262116 -57.91951726 2.13427556 -48.390625 -3.6015625 C-32.13843932 -12.9488307 -14.95300686 -10.01753728 0 0 Z M-48.390625 15.3984375 C-49.4386285 17.37370676 -50.4474984 19.37099768 -51.390625 21.3984375 C-50.35164063 21.67816406 -49.31265625 21.95789063 -48.2421875 22.24609375 C-39.63977667 24.67664894 -32.18204364 27.28462072 -25.390625 33.3984375 C-23.86570502 36.44827746 -24.15499952 39.0407744 -24.390625 42.3984375 C-25.515625 44.3359375 -25.515625 44.3359375 -27.390625 45.3984375 C-32.29416628 45.88332807 -34.55137395 45.038234 -38.390625 42.0234375 C-45.80702583 36.57667428 -52.2199206 35.28823873 -61.390625 36.3984375 C-68.19715153 38.56107855 -74.24402978 42.53600977 -78.390625 48.3984375 C-81.93418583 55.43298407 -83.83133153 62.08743058 -81.73046875 69.83203125 C-79.7706292 75.40612035 -77.08909146 79.38909419 -72.9765625 83.609375 C-71.31052994 85.48879105 -70.28494713 87.05312333 -69.390625 89.3984375 C-69.765625 93.1484375 -69.765625 93.1484375 -70.390625 96.3984375 C-74.65392985 97.44251216 -76.85672568 97.62323721 -80.953125 95.8984375 C-84.8321303 93.40604495 -87.60676932 90.02866688 -90.390625 86.3984375 C-95.08877332 90.76004225 -97.0837121 95.61798895 -97.78515625 101.97265625 C-98.00295296 109.95046905 -97.12619046 116.31086911 -93.390625 123.3984375 C-89.97624509 122.08614914 -86.75437891 120.59542038 -83.515625 118.8984375 C-75.93044245 115.09465864 -66.81744418 111.95866915 -58.328125 114.2109375 C-56.390625 115.3984375 -56.390625 115.3984375 -55.390625 117.3984375 C-55.13202365 121.44985869 -55.08620946 122.94181419 -57.390625 126.3984375 C-60.5859375 127.20703125 -60.5859375 127.20703125 -64.515625 127.8359375 C-73.65491267 129.45175314 -81.45363552 132.31743303 -87.33984375 139.9140625 C-92.77476939 148.46338374 -95.7729919 155.66182949 -93.92578125 166 C-91.69103303 175.60016098 -86.59423504 182.8748913 -78.390625 188.3984375 C-70.33796262 192.97963412 -61.61819945 193.96191881 -52.62109375 191.703125 C-48.24943419 190.10488387 -44.85892335 188.09284897 -41.265625 185.1484375 C-38.45246096 182.88418352 -36.65047289 181.97688745 -33.015625 181.8984375 C-29.390625 182.3984375 -29.390625 182.3984375 -27.390625 184.3984375 C-26.84310153 187.62882597 -26.58791636 189.32138773 -27.390625 192.3984375 C-33.43343853 200.4117337 -43.8701069 204.4590727 -53.390625 206.3984375 C-52.85023085 214.78386399 -50.82440362 221.53234523 -44.390625 227.3984375 C-36.79656798 232.37201006 -30.48296914 234.25275171 -21.390625 233.3984375 C-14.0128579 231.43890256 -7.24782003 226.74203456 -3.0390625 220.34375 C0.13468631 214.2930778 0.73434426 208.84379828 0.74981689 202.02423096 C0.75278802 201.2912695 0.75575914 200.55830804 0.7588203 199.80313563 C0.76747758 197.35214388 0.76901302 194.90120113 0.77050781 192.45019531 C0.77513809 190.69068295 0.78016303 188.93117158 0.78555298 187.17166138 C0.79865875 182.39464638 0.80511837 177.61764543 0.80956364 172.84061527 C0.81249729 169.85432052 0.81660265 166.86802958 0.82106781 163.88173676 C0.83473791 154.53305048 0.84440697 145.18437296 0.8482697 135.83567739 C0.85274946 125.05372566 0.87029561 114.27190077 0.8992703 103.48998761 C0.92090461 95.14926051 0.93097492 86.80856906 0.93231082 78.46781421 C0.93335758 73.48930911 0.93923811 68.51092331 0.95713043 63.53244781 C0.97364137 58.84730178 0.97575195 54.16236436 0.96699142 49.47719955 C0.96622267 47.7619839 0.97054238 46.04675689 0.98044968 44.33156967 C1.0473067 32.0312777 0.43218205 21.8396656 -8.390625 12.3984375 C-14.76897091 6.73837379 -21.09545006 4.90169693 -29.58203125 5.0859375 C-36.88357208 5.89834816 -43.6170933 9.8334394 -48.390625 15.3984375 Z " fill="#1F4571" transform="translate(236.390625,136.6015625)"/>
<path d="M0 0 C0.77601563 0.41378906 1.55203125 0.82757813 2.3515625 1.25390625 C3.14820313 1.67800781 3.94484375 2.10210937 4.765625 2.5390625 C13.70509925 7.90573684 20.16140634 16.82099286 23.10546875 26.8125 C24.79777862 30.12815414 26.58122386 30.64380234 29.9765625 32.06640625 C39.58581079 36.56606623 46.09118825 43.69638602 50.28515625 53.41796875 C51.91564262 58.08318812 52.44673484 62.31200414 52.55249023 67.25708008 C52.61164392 75.0497203 52.61164392 75.0497203 56.5390625 81.56640625 C57.16554688 82.15035156 57.79203125 82.73429687 58.4375 83.3359375 C66.70859658 91.62391387 68.7529946 102.83320135 68.79736328 114.03759766 C68.55669016 122.58845503 65.42318588 130.02425635 60.9765625 137.25390625 C59.06522962 140.7825208 59.30597488 141.51886598 60.3515625 145.25390625 C61.02466942 146.84341176 61.71323885 148.42642506 62.4140625 150.00390625 C64.30715143 155.07738457 64.73065359 159.59025614 64.7265625 164.94140625 C64.72861694 165.99183105 64.72861694 165.99183105 64.73071289 167.06347656 C64.47004736 179.59309432 59.23980104 191.15184148 50.6171875 200.21875 C43.29445965 206.79657967 34.39905641 212.25390625 24.3515625 212.25390625 C24.36058594 212.88554687 24.36960937 213.5171875 24.37890625 214.16796875 C24.03021613 224.68931396 19.33107307 234.41190863 12.3515625 242.25390625 C0.86250457 252.10459585 -10.79222949 254.45323888 -25.52685547 253.47705078 C-35.95060211 252.38069814 -44.86707765 245.15002021 -51.30078125 237.2109375 C-56.8002245 229.22478947 -58.79569591 222.095106 -58.80233765 212.48228455 C-58.8067199 211.70652071 -58.81110215 210.93075688 -58.8156172 210.13148504 C-58.82895725 207.53548945 -58.83517328 204.93952776 -58.84130859 202.34350586 C-58.84921342 200.48048755 -58.8574826 198.61747076 -58.86608887 196.75445557 C-58.89226758 190.63840183 -58.90761356 184.5223414 -58.921875 178.40625 C-58.92723661 176.29750629 -58.93261412 174.18876262 -58.93800735 172.080019 C-58.95963104 163.30504289 -58.97836587 154.53006859 -58.98962975 145.75507259 C-59.00585736 133.19749083 -59.03901238 120.64021902 -59.09603059 108.08275408 C-59.1347916 99.24347305 -59.1542698 90.40427471 -59.15955031 81.56491095 C-59.16319563 76.29055351 -59.17512969 71.01652698 -59.20765305 65.74226189 C-59.23784167 60.77549134 -59.24400709 55.80925008 -59.23226929 50.84240723 C-59.23204945 49.02684615 -59.24027977 47.21125974 -59.25792313 45.39578438 C-59.39160026 30.83964705 -57.12702553 19.18903027 -46.6484375 8.25390625 C-33.99067628 -3.10757822 -15.93099118 -7.07770041 0 0 Z M-38.6484375 21.25390625 C-43.47149908 28.3260639 -44.76948398 34.08131518 -44.78887939 42.62138367 C-44.79185052 43.35363956 -44.79482164 44.08589545 -44.7978828 44.84034091 C-44.80654009 47.2889987 -44.80807553 49.73760743 -44.80957031 52.1862793 C-44.81420063 53.94416915 -44.81922558 55.70205799 -44.82461548 57.45994568 C-44.83772182 62.23289572 -44.84418111 67.0058317 -44.84862614 71.77879691 C-44.85156001 74.76308935 -44.85566543 77.74737796 -44.86013031 80.73166847 C-44.87380124 90.07555138 -44.8834696 99.41942554 -44.8873322 108.76331776 C-44.89181062 119.53676947 -44.90935024 130.31009415 -44.9383328 141.08350724 C-44.95997611 149.41915447 -44.97003791 157.75476603 -44.97137332 166.09044105 C-44.97241954 171.0650657 -44.97828834 176.03957089 -44.99619293 181.01416588 C-45.01271921 185.69685271 -45.01480705 190.37933084 -45.00605392 195.06203651 C-45.00528596 196.77521958 -45.00959438 198.48841407 -45.01951218 200.2015686 C-45.08719807 212.62780518 -44.83690205 222.94847094 -35.84375 232.33984375 C-29.59010595 237.7923092 -22.70439959 239.62115882 -14.56640625 239.53515625 C-7.3912517 238.84357509 -1.70816685 235.19596747 3.3515625 230.25390625 C7.7498953 224.51163843 9.69682558 219.50443099 9.3515625 212.25390625 C8.75730469 212.10695313 8.16304687 211.96 7.55078125 211.80859375 C-0.98973754 209.49747358 -11.4396243 205.79770468 -16.6484375 198.25390625 C-17.1655896 195.3477363 -16.99288916 193.2555564 -16.6484375 190.25390625 C-14.6484375 188.25390625 -14.6484375 188.25390625 -11.0234375 187.75390625 C-6.42911886 187.85306421 -4.21128867 189.82570587 -0.76171875 192.65234375 C6.76306159 198.35504234 15.15820282 199.33081028 24.3515625 198.25390625 C33.20053253 196.320195 40.65747365 190.575391 45.796875 183.171875 C50.14368393 175.00953378 51.57297358 166.37579606 49.2265625 157.37890625 C45.95031795 147.42938938 40.36947099 141.46226924 31.3515625 136.25390625 C26.47649799 134.02833332 21.24199251 133.59061557 15.9609375 132.9140625 C13.3515625 132.25390625 13.3515625 132.25390625 11.3515625 129.25390625 C11.01198687 125.17899873 11.03823764 123.72389354 13.3515625 120.25390625 C22.22554458 117.35785974 33.33791912 121.22534774 41.3515625 125.25390625 C43.41456876 126.51487058 45.36944669 127.86642518 47.3515625 129.25390625 C48.0115625 129.25390625 48.6715625 129.25390625 49.3515625 129.25390625 C53.61554213 121.16376633 54.64068652 113.30579881 53.3515625 104.25390625 C51.75645819 99.97109727 49.77325845 96.12429532 47.3515625 92.25390625 C46.2996875 93.33671875 46.2996875 93.33671875 45.2265625 94.44140625 C36.58786886 102.9827625 36.58786886 102.9827625 30.3515625 103.25390625 C27.9765625 102.81640625 27.9765625 102.81640625 26.3515625 102.25390625 C25.01742595 96.06836408 25.01742595 96.06836408 26.3515625 92.81640625 C28.3515625 90.25390625 28.3515625 90.25390625 30.0078125 88.484375 C35.57948742 82.49954621 37.87175784 77.5036047 38.7890625 69.37890625 C38.42012726 61.97068666 35.71513773 55.23043299 30.6640625 49.81640625 C23.79272305 43.65371322 17.4240077 41.57536278 8.20703125 41.9375 C2.06947545 42.61758484 -1.97774906 44.61390397 -6.7734375 48.44140625 C-9.45681507 50.56069463 -10.48677273 51.22645374 -13.9609375 51.81640625 C-16.6484375 51.25390625 -16.6484375 51.25390625 -18.5234375 50.19140625 C-20.34475956 47.05468492 -20.13767837 44.80090252 -19.6484375 41.25390625 C-13.31242608 32.59469064 -2.72054198 29.22679269 7.3515625 27.25390625 C3.90492715 19.91107442 -1.28164319 15.4373034 -8.5234375 11.81640625 C-20.3057715 9.69558613 -30.52966861 12.08494835 -38.6484375 21.25390625 Z " fill="#1F4571" transform="translate(319.6484375,130.74609375)"/>
</svg>
